<?xml version="1.0" standalone="no"?>
<!DOCTYPE svg PUBLIC "-//W3C//DTD SVG 20010904//EN"
 "http://www.w3.org/TR/2001/REC-SVG-20010904/DTD/svg10.dtd">
<svg version="1.0" xmlns="http://www.w3.org/2000/svg"
width="160" height="60" viewBox="0 0 4950.000000 2050.000000"
 preserveAspectRatio="xMidYMid meet">
<text x="2300" y="1300" font-family="Arial" font-size="800" font-weight="bold" font-style="italic" fill="black">Wifuus</text>

<g transform="translate(0.000000,2000.000000) scale(0.100000,-0.100000)"
fill="#000000" stroke="none">
<path d="M4815 18403 c-1120 -57 -2231 -632 -2837 -1468 -468 -646 -576 -1394
-287 -1995 135 -279 320 -499 581 -688 43 -31 76 -58 74 -60 -5 -4 -109 -29
-365 -87 -112 -25 -216 -53 -231 -62 -15 -8 -36 -30 -46 -47 -19 -30 -19 -174
-22 -6120 -1 -4351 1 -6100 9 -6129 6 -22 23 -53 38 -68 46 -46 79 -46 283 1
163 37 1218 278 2323 530 1098 251 2452 560 3220 735 473 108 1173 268 1555
355 1466 335 2782 635 3460 790 388 88 802 183 920 210 1122 256 3857 881
4365 996 253 58 472 110 488 116 15 6 39 24 52 40 l25 30 0 6130 0 6130 -39
39 c-33 34 -45 39 -83 39 -24 0 -233 -43 -463 -96 -231 -52 -625 -142 -875
-199 -453 -103 -1223 -279 -2765 -631 -445 -102 -967 -221 -1160 -265 -192
-44 -418 -95 -500 -114 -83 -19 -155 -35 -161 -35 -6 0 -33 37 -59 83 -360
620 -757 948 -1271 1047 -216 41 -551 43 -834 5 -659 -91 -1458 -391 -2156
-810 -82 -50 -154 -84 -228 -109 -114 -38 -291 -119 -395 -179 -34 -21 -66
-37 -70 -37 -5 0 -11 66 -13 148 -15 424 -200 822 -529 1137 -467 446 -1198
679 -2004 638z m430 -283 c449 -39 839 -167 1160 -380 136 -91 354 -304 434
-425 186 -283 265 -618 228 -967 l-9 -77 -91 -72 c-119 -94 -412 -387 -509
-509 -218 -276 -381 -560 -493 -865 -27 -72 -53 -135 -59 -142 -6 -7 -72 -49
-146 -94 -157 -94 -383 -206 -559 -275 l-123 -48 7 -61 c17 -156 92 -439 151
-572 19 -45 20 -53 7 -53 -33 0 -197 62 -295 111 -171 86 -263 153 -424 311
l-100 99 -125 -16 c-175 -23 -505 -31 -670 -16 -610 56 -1100 269 -1434 623
-187 199 -303 423 -362 698 -28 131 -25 418 5 569 33 163 82 304 167 476 125
255 267 449 494 675 585 583 1417 951 2291 1013 107 8 344 6 455 -3z m12855
-642 c-82 -68 -1176 -942 -1490 -1189 -613 -483 -1257 -982 -1770 -1373 -107
-82 -202 -155 -210 -163 -14 -13 125 77 715 465 582 383 1417 921 2110 1359
581 367 672 423 684 423 8 0 11 -137 11 -499 l0 -499 -172 -113 c-782 -512
-1665 -1076 -2472 -1581 -237 -148 -432 -271 -435 -275 -4 -3 19 8 49 24 398
222 2997 1573 3025 1573 3 0 4 -217 3 -482 l-3 -483 -110 -58 c-193 -103
-1857 -938 -2217 -1113 -190 -93 -345 -170 -344 -171 1 -2 157 61 347 138 808
330 2294 919 2319 919 7 0 10 -153 10 -456 l0 -455 -42 -19 c-80 -35 -1130
-427 -1703 -635 -602 -219 -652 -238 -620 -231 11 2 256 71 545 154 707 203
1786 502 1810 502 6 0 10 -162 10 -439 0 -410 -1 -440 -17 -445 -56 -17 -1039
-262 -1443 -360 -646 -156 -731 -177 -690 -172 19 3 278 46 575 96 631 107
1520 250 1553 250 l22 0 0 -425 c0 -331 -3 -427 -12 -430 -21 -8 -686 -97
-1683 -225 -209 -27 -342 -47 -295 -44 315 18 1026 56 1290 69 608 30 685 33
693 28 4 -2 7 -99 7 -215 0 -203 -1 -210 -20 -215 -23 -6 -22 -28 1 -28 11 0
14 -22 14 -110 0 -96 -2 -110 -16 -107 -9 1 -19 -4 -22 -13 -6 -14 8 -30 28
-30 6 0 11 -42 13 -101 l3 -102 -26 -6 c-34 -9 -32 -49 3 -54 21 -3 22 -8 22
-98 0 -85 -2 -94 -19 -94 -24 0 -45 -25 -37 -45 3 -8 17 -20 31 -25 24 -9 25
-13 25 -95 0 -80 -1 -86 -23 -94 -37 -14 -50 -36 -37 -60 6 -12 15 -22 20 -22
6 -1 16 -2 23 -3 8 -1 13 -26 15 -78 l3 -77 -36 -15 c-31 -13 -36 -20 -33 -42
3 -26 14 -37 51 -48 15 -5 17 -16 15 -78 -3 -67 -5 -73 -26 -76 -29 -4 -53
-41 -46 -69 4 -14 20 -27 40 -35 l34 -12 0 -68 c0 -57 -3 -70 -17 -74 -54 -16
-71 -42 -57 -81 6 -19 20 -30 42 -37 l33 -9 -3 -60 c-3 -59 -4 -61 -34 -69
-44 -11 -63 -57 -40 -93 9 -14 30 -28 47 -32 29 -6 30 -7 27 -61 -3 -52 -5
-56 -33 -64 -36 -9 -55 -33 -55 -69 0 -31 40 -69 72 -69 17 0 19 -6 16 -52 -3
-49 -5 -52 -35 -60 -82 -21 -82 -125 0 -146 31 -8 32 -10 32 -58 0 -45 -2 -49
-25 -52 -66 -9 -93 -90 -45 -137 13 -14 36 -25 50 -25 25 0 26 -3 23 -42 -3
-37 -7 -44 -28 -48 -48 -10 -80 -45 -80 -88 0 -30 38 -71 73 -80 28 -7 32 -12
32 -42 0 -30 -4 -35 -31 -40 -44 -9 -54 -18 -70 -57 -13 -30 -13 -38 1 -67 15
-31 30 -41 88 -60 14 -4 17 -14 15 -37 -2 -26 -8 -33 -28 -36 -56 -8 -99 -64
-87 -114 10 -39 30 -59 72 -73 27 -10 41 -21 43 -35 3 -21 -1 -25 -50 -35 -43
-10 -68 -43 -68 -92 0 -53 31 -93 80 -103 46 -9 49 -42 5 -51 -63 -13 -95 -51
-95 -110 0 -39 46 -90 89 -99 36 -7 53 -28 29 -35 -7 -2 -26 -7 -41 -11 -65
-14 -100 -89 -71 -150 18 -38 41 -55 89 -65 44 -9 38 -33 -9 -41 -54 -9 -96
-56 -96 -107 0 -39 30 -99 55 -108 24 -10 18 -27 -25 -69 l-40 -39 -42 39
c-24 22 -45 41 -48 43 -3 2 8 13 23 24 96 70 59 218 -55 218 -56 0 -85 -18
-109 -67 -25 -52 -17 -89 33 -140 l32 -33 -36 -38 c-19 -20 -40 -45 -45 -55
-8 -15 -15 -8 -50 47 l-41 64 20 19 c35 31 51 80 38 119 -24 72 -102 104 -169
69 -29 -14 -29 -14 -71 40 -35 45 -40 57 -31 74 6 11 11 36 11 56 0 29 -8 45
-35 72 -33 33 -39 35 -83 30 -46 -5 -48 -4 -98 45 -48 46 -51 53 -47 88 10 72
-47 128 -119 118 -28 -5 -40 2 -90 46 -55 50 -57 52 -51 93 5 39 2 46 -30 78
-36 36 -71 44 -108 24 -16 -8 -29 -2 -77 38 -31 26 -61 50 -66 54 -4 4 -2 23
5 42 32 89 -73 163 -143 100 -19 -17 -17 -18 -116 57 -60 45 -69 56 -53 61 22
9 61 56 61 76 0 30 -31 71 -60 82 -51 17 -110 -17 -110 -65 0 -13 -2 -24 -5
-24 -3 0 -84 54 -180 121 -139 96 -175 126 -175 144 0 12 -10 35 -21 49 -19
24 -28 27 -68 24 -43 -3 -55 2 -132 52 -46 30 -86 55 -88 57 -2 1 7 11 19 21
15 13 23 30 23 50 0 85 -108 100 -136 19 -4 -10 -11 -17 -15 -15 -5 2 -88 55
-185 118 -152 99 -177 119 -177 141 0 50 -59 85 -99 60 -11 -7 -41 9 -110 56
-53 36 -103 72 -111 79 -12 12 -12 14 3 14 9 0 24 11 33 25 37 57 -33 110 -82
64 -15 -14 -23 -31 -21 -41 7 -26 -6 -17 -210 136 -193 145 -305 236 -398 324
-99 95 -271 335 -349 490 -30 60 -31 62 -12 62 24 0 30 21 12 38 -12 13 -20
14 -33 6 -15 -9 -21 -3 -41 40 -76 160 -149 409 -177 597 -34 238 -31 445 15
924 10 110 21 250 25 310 3 61 21 380 40 710 36 623 57 1024 75 1400 6 121 18
380 28 575 20 427 22 804 4 910 -25 144 -75 335 -100 385 -43 86 -100 163
-200 267 -224 234 -538 467 -779 579 -77 36 -116 71 -96 89 4 4 60 19 123 33
226 50 1225 278 1244 284 11 3 -68 -88 -175 -203 -217 -234 -259 -283 -179
-208 30 28 149 138 263 244 l209 193 846 193 c466 106 855 195 865 198 18 4
18 4 0 -16 -31 -35 -685 -642 -1133 -1052 -234 -214 -443 -407 -465 -429 -47
-47 -55 -53 415 318 173 137 389 307 480 379 171 134 889 693 1065 828 l100
77 265 61 c146 33 474 108 730 167 256 58 566 129 690 158 124 29 234 53 245
53 18 1 18 -1 -5 -20z m-10780 -1460 c0 -6 12 -8 26 -5 17 3 24 1 21 -8 -3 -6
-1 -18 4 -26 8 -11 9 -10 7 5 -2 10 3 21 11 24 8 2 11 0 8 -6 -4 -5 0 -15 8
-22 13 -11 14 -10 8 6 -6 17 -5 17 10 5 9 -7 14 -18 10 -25 -4 -6 1 -5 10 3
12 9 17 10 17 2 0 -18 -31 -25 -51 -12 -11 6 -19 7 -19 1 0 -20 50 -23 70 -5
18 16 20 17 20 2 0 -10 5 -17 11 -17 5 0 7 4 4 10 -3 6 1 7 9 4 9 -3 16 -10
16 -15 0 -5 5 -9 11 -9 16 0 73 -50 75 -66 1 -8 -3 -17 -8 -21 -7 -3 -8 -1 -4
5 4 7 2 12 -5 12 -7 0 -9 -8 -6 -21 3 -12 3 -18 0 -15 -5 5 -13 -1 -48 -44
-12 -14 -14 -20 -5 -15 8 5 4 -4 -10 -21 -59 -69 -94 -104 -107 -104 -16 0
-17 12 -1 28 9 9 9 12 0 12 -7 0 -12 -5 -12 -11 0 -5 -5 -7 -12 -3 -6 4 -8 3
-4 -4 3 -6 -2 -13 -11 -15 -14 -4 -13 -5 4 -6 35 -2 39 -22 9 -48 -15 -12 -24
-23 -21 -23 11 0 -129 -154 -142 -156 -7 -1 -11 2 -7 7 3 5 10 7 15 4 5 -4 6
2 2 11 -5 13 -8 14 -11 5 -4 -11 -6 -11 -13 0 -12 19 -7 -20 5 -41 5 -8 6 -12
1 -8 -9 9 -35 -16 -35 -34 0 -19 -74 -90 -85 -81 -4 5 -6 1 -2 -8 3 -11 -5
-24 -24 -38 -16 -12 -29 -27 -29 -34 0 -22 -77 -90 -92 -81 -10 6 -10 5 1 -9
17 -22 3 -22 -21 0 -18 16 -19 16 -13 -3 6 -18 6 -18 -8 -1 -10 12 -17 14 -22
8 -3 -6 -1 -11 6 -11 8 0 8 -4 2 -12 -5 -7 -9 -28 -8 -47 1 -24 -5 -37 -22
-48 -13 -8 -20 -19 -18 -24 3 -4 -4 -13 -15 -19 -11 -6 -20 -8 -20 -5 0 4 -6
3 -12 -2 -20 -12 -48 -14 -48 -3 0 6 -8 10 -17 10 -15 0 -16 -2 -3 -10 10 -6
5 -9 -18 -8 -18 1 -32 6 -32 12 0 6 -5 4 -10 -4 -8 -12 -11 -13 -19 -1 -6 9
-18 11 -38 7 -22 -5 -34 -2 -48 14 -14 15 -21 17 -32 9 -10 -9 -18 -8 -32 5
-22 20 -21 64 4 122 16 38 17 38 32 19 11 -14 14 -15 10 -4 -3 9 0 22 6 28 9
9 8 11 -4 6 -10 -4 -20 -2 -24 4 -3 6 1 11 9 11 21 0 30 18 17 34 -14 17 -2
29 16 14 11 -9 12 -7 4 14 -8 20 -4 37 19 82 30 61 40 76 36 54 -6 -32 -18
-58 -28 -58 -7 0 -6 -5 2 -14 6 -8 18 -12 26 -9 11 4 12 9 5 16 -13 13 -15 31
-3 23 4 -2 7 12 7 32 -1 45 5 58 17 41 6 -10 7 -7 3 9 -4 13 -2 22 5 22 6 0
10 7 8 16 -2 10 3 19 10 21 9 4 11 -3 7 -24 -5 -27 -5 -27 5 -3 6 13 16 28 23
32 9 5 9 10 -1 20 -8 7 -12 9 -10 3 2 -5 0 -11 -4 -12 -10 -4 -11 -1 -3 19 4
10 10 16 14 14 4 -3 13 5 21 17 12 21 12 21 -5 7 -17 -14 -17 -14 -5 7 12 18
17 20 29 10 12 -9 13 -9 7 1 -8 14 2 57 12 48 3 -4 12 8 19 25 7 17 17 28 22
25 5 -4 12 -2 16 4 3 5 1 10 -4 10 -17 0 29 43 63 60 17 8 32 24 33 35 3 19 2
19 -6 -1 -5 -12 -19 -24 -30 -27 -14 -3 4 20 48 64 61 61 93 86 77 61 -3 -5 1
-9 9 -9 11 0 12 4 3 14 -6 7 -9 15 -7 16 2 1 23 17 47 35 23 18 56 38 72 44
17 5 28 13 25 18 -2 4 8 5 23 3 23 -3 24 -2 7 6 -16 8 -16 10 -4 10 9 1 22 8
29 16 7 8 18 15 24 15 6 0 5 -4 -3 -9 -10 -7 -7 -9 12 -8 16 1 22 6 17 12 -6
7 3 11 26 12 18 0 34 -4 34 -9z m2355 -201 c38 2 53 -1 41 -6 -19 -7 -18 -8 5
-15 23 -7 23 -8 4 -16 -14 -6 -4 -7 30 -4 38 3 46 2 35 -6 -12 -9 -9 -10 10
-4 14 4 30 9 37 11 7 3 10 -3 8 -14 -2 -10 -4 -35 -4 -56 -1 -23 -5 -36 -11
-32 -5 3 -10 1 -10 -4 0 -6 6 -11 13 -11 7 -1 5 -6 -5 -14 -19 -14 -25 -32 -8
-21 17 11 11 -7 -7 -21 -15 -11 -15 -13 -2 -9 12 5 16 0 15 -21 -1 -25 -26
-49 -26 -25 0 6 5 11 10 11 6 0 10 5 10 10 0 6 -7 10 -15 10 -8 0 -15 -8 -15
-19 0 -10 7 -24 15 -31 20 -17 19 -40 -2 -41 -15 0 -15 -2 2 -9 17 -7 17 -9 3
-9 -10 -1 -18 -9 -18 -18 0 -13 2 -15 8 -5 5 7 8 -7 7 -35 -3 -65 -2 -62 -27
-73 -23 -9 -23 -9 2 -10 23 -1 23 -2 5 -10 -17 -7 -17 -9 -2 -9 9 -1 17 -5 17
-10 0 -5 -10 -7 -22 -4 l-23 4 21 -13 c16 -10 19 -18 14 -33 -5 -11 -6 -30 -3
-43 3 -13 -2 -43 -12 -69 -14 -35 -15 -47 -5 -53 7 -4 10 -13 6 -19 -4 -6 -9
-52 -12 -103 -3 -51 -9 -97 -14 -102 -5 -5 -6 -15 -2 -24 4 -10 1 -14 -9 -10
-8 2 -23 -4 -33 -15 -19 -20 -19 -20 0 -13 51 21 50 21 36 4 -7 -9 -9 -18 -4
-20 5 -1 6 -12 1 -23 -6 -17 -8 -17 -8 -2 -1 9 -8 17 -16 17 -9 0 -15 -9 -14
-22 0 -22 1 -22 9 -3 7 17 9 17 9 3 1 -10 5 -18 10 -18 13 0 10 -34 -4 -47 -7
-7 -15 -5 -25 5 -12 14 -12 15 1 10 9 -4 16 -1 16 7 0 10 -5 11 -19 4 -10 -6
-16 -14 -13 -20 4 -5 -4 -13 -17 -18 -23 -10 -23 -10 -1 -10 12 -1 24 4 26 9
3 6 4 5 3 -2 -3 -16 -115 -23 -129 -9 -13 13 -30 15 -23 3 6 -9 -100 -7 -124
3 -21 8 -21 124 -1 149 7 9 15 31 17 49 3 22 1 28 -5 17 -6 -8 -7 -18 -5 -22
3 -4 1 -15 -3 -23 -6 -10 -9 -2 -9 25 0 27 4 40 13 40 16 0 17 36 2 46 -8 4
-7 9 2 15 10 6 11 9 2 9 -7 0 -13 7 -13 15 0 8 4 15 8 15 5 0 8 24 7 53 0 28
3 75 7 102 5 28 9 56 10 63 1 6 7 12 15 12 7 0 13 7 13 15 0 8 -5 15 -11 15
-5 0 -7 -4 -4 -10 3 -5 1 -10 -6 -10 -7 0 -9 8 -4 23 4 12 6 32 6 45 0 12 4
22 10 22 6 0 8 9 4 21 -9 27 15 105 26 87 4 -7 3 -18 -3 -25 -7 -9 -7 -13 0
-13 15 0 22 25 11 41 -5 8 -6 23 -3 34 l6 20 -17 -20 -17 -20 7 20 c4 11 8 37
10 57 1 21 9 45 16 55 12 14 12 16 0 8 -11 -6 -13 -4 -8 9 4 10 10 48 13 84 4
37 13 76 20 87 17 24 56 45 69 37 5 -4 37 -6 70 -5z m97 -6 c2 -4 14 -12 27
-16 16 -5 21 -4 17 4 -4 6 -1 11 8 11 19 0 32 -19 14 -22 -59 -7 -103 5 -91
25 6 10 21 9 25 -2z m-1946 -23 c4 -6 3 -8 -3 -5 -5 3 -10 0 -10 -7 0 -7 6
-13 13 -13 7 0 13 3 12 6 -2 22 7 26 47 23 25 -2 45 -7 45 -11 0 -3 -19 -5
-42 -3 -24 3 -41 2 -38 -1 3 -3 32 -7 64 -10 41 -4 55 -2 45 5 -10 7 -9 8 6 3
11 -4 26 -8 33 -8 6 0 12 -4 12 -8 0 -5 8 -6 18 -3 13 5 14 4 3 -4 -18 -13 1
-24 26 -15 16 6 16 5 4 -10 -16 -20 -8 -23 11 -3 12 11 19 12 45 1 36 -15 75
-66 55 -73 -6 -2 -12 -8 -12 -13 0 -6 5 -7 10 -4 13 8 13 -1 -1 -26 -6 -11
-16 -18 -24 -16 -8 4 -11 -1 -8 -12 3 -12 -9 -30 -38 -55 -23 -20 -47 -36 -51
-36 -5 0 -6 -4 -3 -10 3 -5 -1 -10 -9 -10 -25 0 -19 19 9 30 14 5 25 11 25 12
0 2 -11 3 -25 3 -15 0 -25 -6 -25 -15 0 -12 -2 -12 -8 -2 -6 8 -9 2 -9 -17 0
-17 5 -28 10 -24 6 3 7 1 3 -5 -10 -16 -66 -42 -66 -31 0 6 -4 8 -9 5 -5 -4
-11 0 -14 6 -3 7 -4 3 -4 -9 1 -12 4 -21 7 -20 3 1 6 -2 7 -8 0 -5 -3 -9 -8
-7 -5 1 -9 -4 -10 -10 -1 -16 -69 -74 -69 -59 0 6 5 11 11 11 6 0 9 5 7 11 -4
13 -23 13 -24 -1 -1 -5 -3 -13 -4 -17 -1 -5 -2 -11 -2 -15 1 -3 -6 -12 -15
-20 -15 -11 -16 -11 -9 7 9 24 -3 13 -18 -16 -6 -12 -19 -27 -30 -33 -10 -6
-32 -23 -48 -39 -23 -20 -38 -26 -63 -24 -17 2 -36 7 -42 10 -5 3 -10 0 -10
-8 0 -10 9 -13 29 -11 15 2 28 0 28 -5 0 -13 -18 -20 -25 -10 -3 6 -12 8 -20
5 -8 -4 -12 -10 -9 -15 3 -5 10 -6 16 -3 7 4 8 2 4 -5 -4 -6 -12 -9 -17 -6 -5
4 -9 2 -9 -2 0 -5 -15 -17 -32 -27 -18 -9 -26 -11 -16 -4 14 12 12 14 -23 14
-22 0 -34 -3 -27 -7 7 -4 16 -5 20 -3 4 3 8 -1 8 -9 0 -10 -11 -13 -37 -10
-71 6 -74 7 -68 22 4 11 3 12 -10 1 -11 -9 -15 -9 -15 -1 0 7 -4 10 -8 7 -11
-6 -52 22 -52 35 0 6 6 7 13 3 9 -5 9 -4 1 5 -7 7 -10 21 -7 31 4 15 13 18 46
16 l42 -3 1 46 c0 25 -1 40 -4 32 -4 -11 -6 -11 -14 0 -7 10 -8 8 -3 -8 3 -12
1 -24 -5 -28 -6 -4 -9 -13 -6 -21 3 -8 0 -14 -7 -14 -23 0 -11 50 23 98 19 26
35 49 35 52 2 14 39 60 48 60 5 0 2 -9 -8 -20 -10 -11 -15 -20 -12 -20 4 0 10
0 15 0 4 0 7 4 7 9 0 5 3 13 7 17 4 4 3 13 -3 20 -7 8 -6 14 2 20 8 5 10 3 5
-7 -4 -8 -1 -5 8 5 8 10 13 22 11 26 -2 4 12 24 32 46 19 21 35 41 34 44 0 3
3 5 8 5 5 0 13 3 17 8 4 4 1 7 -7 7 -12 0 -12 2 1 10 10 6 20 4 32 -7 12 -10
18 -12 19 -5 1 7 2 18 3 25 1 6 -2 17 -7 24 -11 15 -1 33 19 33 8 0 14 6 14
14 0 16 90 116 90 101 0 -5 5 -2 11 8 12 20 15 21 25 5z m3704 -39 c0 -5 5 -7
10 -4 6 3 10 1 10 -4 0 -6 8 -11 18 -12 12 0 11 -3 -6 -10 -13 -5 -27 -7 -31
-5 -4 3 -8 -5 -8 -17 -2 -17 0 -19 7 -7 6 10 10 11 10 3 0 -7 11 -12 24 -11
14 1 22 6 20 10 -3 4 -11 5 -19 1 -8 -3 -15 -1 -15 5 0 6 7 9 15 8 24 -3 53
-36 60 -67 4 -16 11 -29 16 -29 6 0 7 -4 4 -10 -3 -5 -2 -10 3 -10 11 0 35
-50 28 -58 -3 -3 2 -11 12 -19 9 -8 12 -12 7 -9 -13 6 -14 -53 -1 -72 5 -8 4
-18 -3 -25 -6 -6 -11 -15 -11 -21 0 -5 7 -1 15 10 16 22 20 12 5 -15 -8 -15
-5 -18 13 -17 25 1 41 21 31 38 -5 7 -3 8 5 4 7 -5 10 -14 7 -22 -3 -8 -1 -14
5 -14 6 0 8 -7 5 -16 -3 -8 -2 -13 3 -10 11 7 18 -11 17 -49 -1 -22 -10 -35
-35 -52 -18 -12 -37 -20 -42 -17 -5 2 -23 -2 -40 -11 -17 -9 -28 -12 -25 -6
10 15 -7 14 -22 -1 -7 -7 -16 -13 -20 -13 -4 -1 -17 -5 -30 -9 -14 -5 -28 -3
-37 4 -12 10 -18 10 -29 1 -11 -9 -19 -9 -35 1 -24 15 -30 35 -20 64 5 14 3
21 -6 21 -7 0 -11 -7 -8 -16 4 -13 3 -14 -5 -2 -6 8 -9 27 -7 42 2 21 0 26
-11 22 -8 -3 -14 0 -14 6 0 6 4 11 10 11 5 0 7 7 3 15 -3 10 -1 15 7 13 7 -2
15 4 17 12 4 13 3 13 -6 0 -9 -13 -11 -12 -12 5 -1 11 -1 24 0 29 1 5 -5 4
-13 -4 -9 -7 -16 -20 -15 -29 0 -12 2 -11 9 4 6 13 9 15 9 5 1 -35 -15 -39
-33 -9 -14 24 -15 33 -5 45 10 12 9 13 -3 9 -11 -4 -25 16 -53 77 -22 46 -38
91 -37 101 1 10 -5 20 -13 24 -14 5 -14 8 2 26 10 11 13 17 6 14 -6 -4 -14 -3
-17 2 -8 13 2 37 17 39 7 1 46 10 87 21 83 22 170 27 170 10z m-3863 -144 c0
-8 -4 -15 -8 -15 -4 0 -9 7 -13 15 -3 9 0 15 8 15 7 0 13 -7 13 -15z m2631
-27 c13 -22 14 -30 4 -40 -10 -10 -15 -5 -24 20 -7 17 -18 34 -25 36 -8 3 -7
-6 5 -30 9 -19 27 -37 39 -40 18 -5 23 -16 29 -67 5 -34 8 -74 7 -89 -1 -16 2
-28 8 -28 5 0 9 -7 9 -15 0 -8 -4 -15 -10 -15 -5 0 -10 5 -10 12 0 6 -3 8 -7
4 -5 -4 0 -14 11 -21 10 -8 15 -19 10 -26 -5 -8 -3 -10 6 -4 10 6 12 4 7 -9
-4 -10 -3 -26 3 -36 7 -13 6 -19 -6 -24 -11 -4 -14 -1 -10 12 3 9 -2 28 -10
42 -10 16 -13 18 -8 5 3 -11 7 -33 9 -48 2 -33 25 -62 25 -32 0 10 2 16 5 13
3 -3 0 -26 -6 -51 -9 -31 -17 -43 -26 -40 -11 4 -13 -3 -10 -31 5 -45 19 -52
23 -11 2 16 8 31 13 33 5 2 8 9 5 17 -3 8 -2 21 3 29 6 11 9 4 10 -24 1 -25
-2 -40 -10 -40 -9 0 -9 -2 1 -8 9 -6 7 -14 -9 -30 -11 -12 -24 -20 -29 -17 -5
3 -11 1 -15 -5 -3 -5 -16 -10 -28 -9 l-22 0 23 9 c29 12 28 18 -3 12 -14 -2
-25 -11 -25 -18 0 -21 -40 -17 -41 4 -1 16 -2 16 -6 0 -6 -26 -23 -22 -24 5 0
20 -1 20 -8 3 -4 -11 -14 -20 -23 -22 -9 -1 -26 -5 -39 -9 -18 -5 -20 -4 -9 4
8 5 12 13 8 16 -3 3 -12 0 -19 -8 -20 -19 -46 -17 -66 6 -16 17 -18 45 -18
267 0 136 3 246 6 244 4 -2 9 3 13 11 3 8 1 17 -4 20 -4 3 -11 -1 -13 -7 -4
-9 -6 -7 -6 3 -1 9 7 23 16 30 11 10 14 10 9 2 -4 -7 -2 -13 3 -13 6 0 11 6
11 14 0 17 36 22 153 21 74 0 79 -1 95 -27z m1405 -105 c-5 -12 -3 -14 7 -8 8
5 11 4 7 -2 -4 -6 0 -13 7 -16 19 -8 18 -64 -2 -72 -10 -4 -12 0 -8 11 3 8 1
25 -6 37 -14 26 -19 48 -12 59 9 14 14 9 7 -9z m-4281 -245 c-7 -7 -12 -8 -12
-2 0 14 12 26 19 19 2 -3 -1 -11 -7 -17z m-872 -48 c0 -5 -5 -10 -11 -10 -5 0
-7 5 -4 10 3 6 8 10 11 10 2 0 4 -4 4 -10z m4980 0 c0 -5 -4 -10 -10 -10 -5 0
-10 5 -10 10 0 6 5 10 10 10 6 0 10 -4 10 -10z m-4609 -110 c6 0 7 5 4 10 -3
6 -4 10 -1 10 16 0 12 -20 -8 -39 l-23 -22 3 28 c3 37 5 41 11 26 2 -7 9 -13
14 -13z m-366 -110 c3 -5 1 -10 -4 -10 -6 0 -11 5 -11 10 0 6 2 10 4 10 3 0 8
-4 11 -10z m1445 -415 c-30 -86 -68 -250 -85 -365 -22 -144 -36 -441 -29 -581
l7 -116 -81 -12 c-44 -6 -94 -16 -111 -21 l-31 -9 0 57 c1 185 72 515 160 741
52 134 169 361 185 361 2 0 -5 -25 -15 -55z m94 -30 c-69 -297 -60 -706 22
-965 13 -41 22 -75 21 -76 -1 -1 -43 0 -93 3 l-91 6 -6 86 c-14 215 28 601 88
806 29 100 66 207 71 203 1 -2 -4 -30 -12 -63z m2434 -330 c107 -263 176 -417
243 -544 27 -52 49 -95 49 -96 0 -1 -64 -5 -142 -9 -79 -4 -154 -8 -168 -9
-23 -2 -25 3 -37 63 -37 200 -62 572 -48 733 4 49 8 87 10 85 1 -2 43 -102 93
-223z m-4653 -132 c32 -135 84 -272 157 -415 206 -407 527 -726 923 -919 l119
-58 37 -85 c46 -107 110 -210 188 -303 l61 -72 -45 -64 c-56 -80 -80 -136
-100 -231 -18 -92 -19 -170 -1 -256 7 -36 9 -58 5 -50 -5 8 -26 43 -47 77
-111 187 -278 319 -447 353 -106 22 -219 -2 -246 -52 -23 -43 -3 -121 120
-447 66 -178 121 -326 121 -330 0 -3 -25 41 -56 99 -89 167 -160 269 -248 355
-136 133 -263 196 -411 203 -108 5 -168 -9 -208 -49 -53 -54 -47 -71 221 -595
131 -258 305 -586 386 -729 82 -143 157 -277 167 -297 l19 -38 -33 -30 c-37
-32 -147 -206 -196 -310 -36 -76 -39 -126 -12 -187 l20 -42 -34 -11 c-50 -16
-120 -84 -141 -134 l-19 -45 -390 -131 c-417 -141 -809 -284 -1020 -373 -495
-209 -938 -453 -1247 -689 -42 -32 -80 -58 -84 -58 -4 0 -12 -6 -18 -14 -6 -7
-58 -54 -116 -103 -58 -50 -154 -141 -215 -204 -60 -62 -131 -135 -157 -161
-27 -27 -48 -52 -48 -57 0 -5 -24 -40 -53 -77 -163 -209 -357 -578 -436 -829
-13 -38 -26 -79 -30 -90 -14 -34 -30 -103 -70 -295 -43 -205 -70 -443 -74
-652 l-2 -137 60 -7 c33 -3 69 -13 80 -20 11 -8 29 -14 40 -14 27 0 65 35 65
59 0 27 -38 71 -62 71 -18 0 -20 4 -14 38 3 20 6 49 6 65 0 15 5 27 12 27 44
0 64 78 27 104 -19 13 -21 20 -14 73 4 32 14 77 21 101 8 23 12 47 9 52 -9 15
61 284 117 445 29 84 91 227 139 325 229 459 550 815 1036 1144 118 80 419
256 437 256 3 0 -41 -42 -97 -94 -206 -188 -385 -390 -547 -616 -49 -69 -100
-136 -114 -150 -14 -14 -26 -32 -26 -39 0 -7 -29 -64 -65 -126 -35 -61 -89
-163 -120 -225 -30 -62 -60 -119 -66 -126 -6 -7 -15 -28 -19 -46 -4 -18 -28
-85 -52 -148 -24 -63 -59 -163 -78 -223 -31 -98 -35 -106 -50 -92 -38 34 -98
0 -86 -49 7 -27 43 -43 71 -32 8 3 15 4 15 3 0 -1 -9 -36 -20 -77 -14 -55 -26
-80 -45 -93 -27 -20 -32 -51 -14 -89 7 -18 4 -56 -15 -158 -87 -472 -93 -948
-15 -1243 8 -29 7 -42 -6 -59 -8 -13 -15 -31 -15 -41 0 -30 32 -75 61 -88 31
-12 68 -92 42 -88 -55 9 -103 -34 -103 -90 1 -92 105 -130 164 -60 l25 29 42
-45 42 -45 183 0 c153 0 184 2 184 14 0 8 8 17 18 20 22 7 52 56 52 85 0 36
-22 70 -57 86 -28 14 -40 14 -70 4 -43 -14 -43 -13 -77 91 -61 183 -89 399
-77 585 1 17 -1 56 -5 88 -17 141 59 613 142 879 4 12 15 17 40 16 38 -1 63
22 64 59 0 22 -7 32 -43 56 -16 11 -15 19 24 122 94 251 221 500 357 705 74
110 79 115 112 115 29 0 36 4 38 23 2 13 -2 29 -8 37 -29 35 388 484 654 704
44 36 76 56 76 48 0 -8 6 -20 14 -26 12 -10 16 -8 21 10 4 13 2 24 -5 29 -7 4
-9 13 -6 19 12 19 313 241 472 348 190 128 397 257 534 335 l35 19 -35 -28
c-19 -15 -76 -63 -127 -105 -51 -43 -95 -78 -97 -78 -1 0 -56 -54 -122 -121
-65 -66 -129 -125 -142 -130 -13 -5 -20 -14 -16 -20 3 -6 -11 -30 -33 -52 -59
-62 -170 -199 -255 -313 -297 -402 -525 -846 -664 -1297 -26 -87 -27 -88 -55
-82 -31 7 -69 -22 -69 -53 0 -23 36 -62 56 -62 10 0 14 -6 11 -17 -3 -10 -11
-41 -17 -70 -6 -29 -19 -58 -27 -65 -27 -22 -35 -58 -19 -83 13 -20 13 -34 -1
-116 -11 -68 -16 -183 -19 -408 l-3 -315 -48 -73 c-47 -72 -63 -87 -63 -59 0
21 -49 56 -77 56 -30 0 -83 -51 -83 -79 0 -50 41 -91 90 -91 24 0 24 -1 3 -44
-9 -20 -29 -40 -46 -47 -38 -16 -61 -67 -47 -104 8 -21 5 -45 -14 -108 -27
-91 -51 -201 -61 -289 l-7 -58 -19 24 c-50 63 -169 23 -169 -56 0 -86 90 -137
153 -88 14 11 28 20 31 20 3 0 6 -29 6 -65 0 -36 -3 -65 -7 -65 -3 0 -14 7
-23 15 -50 46 -140 17 -159 -51 -18 -66 32 -134 99 -134 26 0 80 27 80 40 0 6
4 10 8 10 5 0 14 -37 20 -82 7 -45 24 -131 38 -190 24 -101 25 -110 10 -133
-9 -13 -16 -42 -16 -65 0 -34 6 -46 42 -81 l43 -41 -50 -44 c-49 -44 -65 -53
-65 -34 0 20 -83 70 -115 70 -40 0 -86 -32 -115 -80 -7 -12 -16 -7 -45 27 -45
53 -91 65 -143 37 -20 -10 -44 -32 -54 -49 -31 -51 -22 -92 33 -150 l29 -31
-44 -43 -44 -43 -41 42 c-23 23 -41 44 -41 46 0 1 16 20 35 41 48 52 53 83 21
137 -43 74 -124 86 -180 27 -55 -57 -42 -145 26 -186 l30 -17 -31 -22 c-32
-22 -71 -83 -71 -110 0 -22 27 -75 53 -103 l20 -22 -31 -36 c-18 -19 -34 -36
-38 -36 -11 -2 -84 65 -84 77 0 6 7 14 15 18 8 3 25 25 36 49 28 58 20 90 -35
143 l-42 40 39 35 c49 43 59 97 28 147 -67 106 -211 61 -211 -65 0 -37 6 -49
39 -82 l38 -38 -45 -42 c-25 -22 -49 -41 -52 -41 -9 0 -94 89 -89 93 2 3 13 9
25 15 11 6 32 31 45 57 l24 45 -20 37 c-54 99 -171 103 -212 6 -21 -53 -10
-95 37 -135 l38 -34 -53 -47 -54 -48 -16 25 c-23 35 -96 71 -127 63 -33 -9
-86 -61 -94 -93 -10 -39 2 -70 57 -145 9 -12 4 -24 -29 -60 l-42 -44 -47 47
-47 47 36 35 c39 38 50 73 37 120 -27 98 -149 119 -207 36 -15 -22 -29 -39
-32 -40 -3 0 -13 13 -23 29 -20 35 -22 101 -3 155 12 34 12 47 -1 89 -10 34
-13 70 -9 111 4 34 6 77 6 96 -1 19 -3 1176 -6 2571 l-5 2537 203 6 c112 3
439 11 728 17 289 6 526 11 527 13 1 1 -314 19 -700 39 -386 21 -714 40 -729
43 l-28 6 0 449 0 450 68 -6 c37 -3 274 -21 527 -41 253 -19 536 -41 630 -49
258 -23 254 -17 -20 26 -631 98 -1152 180 -1177 185 l-28 6 0 445 0 445 27 -6
c16 -3 183 -35 373 -70 190 -36 527 -101 750 -145 223 -44 421 -82 440 -86 19
-3 -242 71 -580 164 -338 93 -703 194 -810 223 l-195 55 -3 452 -2 452 22 -6
c177 -54 1067 -342 1523 -494 181 -61 330 -109 332 -108 1 2 -113 50 -255 106
-213 86 -1060 437 -1509 626 l-113 48 0 473 c0 261 3 474 6 474 22 0 1615
-755 1998 -947 81 -41 150 -73 151 -71 2 2 -203 121 -456 266 -616 353 -1490
863 -1652 964 l-47 30 2 401 3 402 135 31 134 31 186 -117 c589 -371 1266
-805 1727 -1108 325 -213 417 -273 408 -264 -5 5 -104 81 -220 168 -596 448
-1794 1372 -1795 1385 0 3 44 16 99 28 l99 22 163 -55 c336 -112 693 -164
1062 -154 l168 5 460 -383 c252 -211 459 -382 459 -380 0 2 -178 176 -397 387
-385 372 -395 383 -368 391 26 6 35 1 84 -45 269 -255 621 -430 981 -486 74
-12 451 -43 456 -38 2 2 -44 68 -102 147 -59 80 -128 188 -154 240 -51 104
-105 238 -97 246 2 3 59 -52 126 -122 66 -69 121 -124 121 -121 0 3 -63 79
-140 169 -136 158 -150 180 -165 264 l-5 29 222 110 223 110 8 -75 c4 -41 19
-121 32 -177z m4200 62 c30 -175 83 -399 125 -537 17 -53 30 -99 30 -101 0 -8
-169 -61 -175 -56 -2 3 -12 48 -22 99 -23 123 -25 538 -4 675 8 50 15 86 17
80 2 -5 15 -77 29 -160z m-960 -367 c176 -481 491 -812 917 -963 l77 -27 -15
-30 c-47 -91 -66 -263 -43 -395 11 -62 29 -78 29 -25 0 77 94 315 152 385 22
26 25 27 73 18 27 -5 51 -8 53 -6 2 2 -9 22 -24 45 l-27 41 39 40 c38 39 163
129 180 129 10 0 64 -51 64 -61 0 -4 -13 -29 -29 -56 -56 -91 -93 -258 -77
-345 l6 -33 97 3 c75 2 103 0 118 -12 20 -15 20 -16 -13 -79 -18 -35 -49 -83
-68 -106 -44 -51 -41 -64 33 -131 98 -90 201 -130 336 -130 76 0 90 6 63 30
-27 21 -40 79 -27 119 25 86 108 113 162 53 28 -31 33 -53 29 -115 -2 -27 0
-28 22 -16 12 7 50 40 83 73 74 75 129 177 155 288 l20 83 -4 -115 c-2 -63 -7
-126 -11 -140 -5 -19 8 -10 57 40 66 68 138 189 138 233 0 20 -24 87 -67 185
-3 7 35 -7 85 -32 50 -24 104 -48 121 -54 l31 -11 -35 -38 c-43 -47 -88 -138
-110 -223 -24 -91 -16 -270 15 -359 55 -155 185 -294 331 -355 l36 -15 -39 77
c-54 108 -71 199 -64 342 10 217 69 366 189 475 171 157 414 285 543 285 38 0
47 -5 86 -49 105 -117 211 -423 225 -647 5 -87 3 -109 -16 -165 -50 -153 -195
-312 -424 -469 -52 -36 -109 -88 -169 -156 -113 -130 -122 -134 -323 -137 -98
-2 -158 -7 -173 -15 -12 -7 -42 -53 -68 -104 -208 -413 -610 -744 -1210 -997
-350 -147 -848 -270 -1158 -287 -383 -21 -817 197 -1241 621 -266 267 -540
655 -616 875 -33 94 -31 266 5 450 15 74 33 173 41 219 l14 83 -50 85 c-27 46
-68 121 -90 166 l-41 82 33 -31 c38 -35 118 -94 129 -94 3 0 -4 46 -17 103
-15 67 -21 116 -17 142 10 63 44 165 55 165 5 0 27 -9 49 -20 l39 -20 -24 70
-24 69 39 49 c65 81 200 161 200 118 0 -18 2 -19 24 -10 9 3 16 14 16 24 0 24
67 35 147 26 78 -9 96 -21 43 -30 -86 -14 -169 -70 -227 -154 -68 -98 -98
-194 -105 -327 -3 -56 -2 -60 17 -55 11 3 55 5 99 5 104 0 110 -9 68 -99 -17
-37 -50 -94 -73 -127 -40 -56 -41 -61 -28 -86 26 -49 106 -128 155 -153 36
-18 69 -26 127 -28 l78 -4 -22 36 c-57 97 29 238 101 166 21 -21 28 -44 32
-105 l3 -40 42 42 c56 57 92 121 124 218 l27 80 6 -75 c3 -41 7 -97 9 -125 l2
-50 25 95 c21 81 25 117 24 245 0 111 -4 167 -18 215 -24 92 -88 215 -147 289
l-50 63 77 -64 c66 -54 83 -75 116 -141 21 -42 43 -77 48 -77 12 0 13 12 1 42
-4 13 -11 36 -15 51 l-7 28 40 -20 c22 -11 75 -34 118 -51 43 -17 94 -46 113
-64 76 -72 207 -121 335 -126 116 -4 113 -11 35 93 -236 313 -378 717 -410
1170 -13 174 -10 222 9 132 50 -245 102 -399 201 -600 128 -261 242 -418 456
-624 116 -113 129 -122 141 -106 11 16 0 31 -105 139 -194 200 -328 398 -429
633 -85 198 -155 455 -168 615 l-5 63 28 -102 c16 -56 46 -148 67 -205z m1816
-380 c41 -61 55 -89 43 -84 -37 14 -220 18 -304 7 -47 -6 -94 -13 -105 -14
-16 -2 -22 9 -36 60 -10 35 -14 65 -9 68 5 3 62 14 127 25 105 17 146 23 205
28 12 1 38 -29 79 -90z m-3034 29 c1 -2 9 -61 18 -132 9 -72 18 -136 20 -142
7 -19 -60 -43 -119 -43 -34 0 -67 8 -96 23 l-45 22 -8 70 c-4 39 -6 99 -5 135
l3 65 45 7 c40 5 179 2 187 -5z m224 -43 l76 -24 41 -70 c22 -39 40 -70 39
-70 -1 0 -34 7 -72 15 -76 16 -195 20 -195 7 0 -5 39 -17 86 -26 48 -9 121
-30 163 -47 64 -25 85 -40 131 -91 l55 -61 -75 51 c-105 70 -152 85 -282 84
-74 0 -108 4 -109 12 0 6 -6 67 -13 134 l-12 124 45 -7 c25 -4 80 -18 122 -31z
m2200 -84 l35 -70 -59 -36 c-33 -20 -75 -50 -94 -67 -18 -16 -36 -27 -39 -25
-7 8 -75 200 -72 203 8 7 165 63 179 64 10 1 28 -24 50 -69z m731 -70 c21 -24
37 -45 34 -47 -2 -2 -23 1 -47 6 -65 15 -303 13 -379 -4 -36 -7 -68 -11 -71
-7 -4 4 -11 21 -17 39 l-11 32 52 10 c29 6 63 12 77 15 14 2 92 3 175 2 l149
-3 38 -43z m-642 -86 c12 -19 21 -36 19 -38 -2 -1 -33 -22 -69 -45 -36 -24
-79 -57 -97 -73 l-31 -30 -26 50 -26 51 35 28 c41 33 145 93 162 93 6 0 21
-16 33 -36z m290 -114 c-37 -31 -53 -33 -58 -7 -3 14 27 26 88 36 3 0 -11 -13
-30 -29z m-2988 -12 c-13 -13 -32 -2 -32 18 0 12 4 13 21 3 14 -7 18 -14 11
-21z m3065 -73 c30 -21 44 -75 32 -120 -19 -67 -81 -84 -130 -36 -23 23 -29
38 -29 71 0 34 4 43 21 47 11 3 18 11 15 18 -12 33 52 47 91 20z m-3314 -97
c22 -17 22 -18 1 -18 -14 0 -26 12 -37 38 -14 30 -14 33 -2 17 9 -11 26 -28
38 -37z m3549 -35 c9 -10 21 -35 28 -56 15 -49 52 -91 105 -123 67 -39 69 -67
7 -102 -53 -29 -87 -69 -115 -133 -38 -87 -69 -85 -107 6 -25 58 -60 98 -112
127 -62 35 -60 63 7 102 53 32 90 74 105 123 14 42 37 73 55 73 7 0 19 -8 27
-17z m-2916 -29 c26 -39 23 -109 -6 -139 -13 -14 -31 -25 -40 -25 -28 0 -53
37 -57 87 -4 39 -1 53 17 76 28 35 64 36 86 1z m194 -111 c22 -67 60 -127 95
-152 47 -32 46 -61 -2 -94 -44 -31 -59 -53 -82 -121 -31 -89 -71 -88 -102 1
-23 67 -44 98 -85 124 -45 28 -45 59 1 90 35 25 73 85 95 152 10 31 16 37 40
37 24 0 30 -6 40 -37z m-1497 -761 c186 -92 297 -249 433 -612 36 -96 127
-293 238 -514 206 -413 263 -545 240 -561 -9 -5 -74 -52 -145 -102 -71 -51
-147 -104 -168 -117 l-38 -25 -58 81 c-141 197 -186 217 -420 183 -183 -27
-160 -35 -228 85 -33 58 -107 188 -165 290 -58 102 -195 361 -305 575 -110
215 -219 428 -243 475 -27 52 -40 88 -34 94 15 15 141 9 195 -9 80 -27 188
-100 255 -172 80 -85 142 -180 226 -346 84 -166 170 -306 416 -677 107 -162
203 -309 213 -327 11 -18 25 -35 33 -38 20 -7 52 13 52 33 0 9 -48 111 -106
227 -58 115 -140 293 -183 395 -81 191 -411 1066 -411 1089 0 26 132 8 203
-27z m726 -108 c-14 -72 -23 -162 -26 -264 -6 -195 4 -237 99 -422 l71 -136
-34 -86 c-19 -47 -37 -86 -40 -86 -3 0 -51 93 -107 208 -104 212 -221 505
-179 447 12 -16 41 -50 64 -75 l43 -45 -8 35 c-16 75 -5 211 23 300 25 79 104
244 112 236 2 -2 -6 -53 -18 -112z m3886 -1626 c-84 -259 -133 -486 -144 -672
l-6 -110 -100 -43 c-223 -98 -1606 -643 -1631 -643 -2 0 -4 137 -4 305 l0 305
41 -27 c66 -43 127 -43 240 2 342 136 1086 579 1509 898 69 52 126 93 127 93
1 -1 -13 -49 -32 -108z m-4318 -57 c29 -18 55 -49 141 -172 31 -44 32 -46 17
-75 -22 -42 -19 -117 6 -166 12 -23 43 -65 70 -93 38 -41 47 -56 43 -76 -7
-29 -35 -119 -37 -119 -1 0 -67 65 -147 143 -238 236 -302 250 -601 137 l-100
-38 -14 29 c-8 15 -15 35 -15 44 0 40 149 296 191 327 30 23 115 46 229 63
127 19 180 18 217 -4z m795 -33 c25 -11 55 -30 67 -42 11 -12 51 -84 88 -161
l68 -140 -1 -130 c-2 -194 -44 -648 -80 -865 -29 -175 -66 -241 -336 -602 -97
-131 -188 -257 -202 -281 -31 -53 -125 -275 -673 -1587 -678 -1622 -842 -2009
-920 -2165 -135 -268 -474 -664 -742 -865 -129 -97 -490 -274 -613 -301 -145
-31 -333 72 -411 227 -36 72 -131 342 -166 475 -55 207 -73 336 -74 529 -1
258 42 449 149 663 141 284 534 803 1465 1932 533 647 639 782 742 943 178
277 237 406 237 512 0 58 -30 184 -91 381 -23 74 -49 161 -59 194 -10 33 -30
88 -45 123 l-26 63 11 142 c20 251 27 288 58 319 46 45 398 186 489 195 89 10
136 -22 319 -210 86 -89 168 -178 181 -199 l24 -36 -22 -44 c-42 -84 -111
-198 -119 -198 -4 0 -79 26 -166 57 -95 33 -181 58 -214 60 -94 7 -164 -31
-131 -71 8 -10 29 -12 74 -9 61 5 65 3 216 -71 134 -66 161 -76 208 -76 66 0
107 20 129 63 16 29 18 30 25 12 4 -11 8 -57 8 -103 1 -94 11 -122 45 -122 42
0 46 17 45 201 -1 251 28 428 93 550 l29 56 62 6 c77 6 179 40 249 81 44 27
54 37 56 65 7 65 -44 80 -119 36 -108 -62 -255 -82 -334 -46 -44 20 -110 87
-126 128 -14 38 7 63 123 141 57 38 146 99 198 136 105 75 114 76 212 34z
m1518 -989 c0 -454 -1 -481 -17 -474 -10 4 -69 10 -130 12 -73 4 -113 10 -113
17 0 6 -22 61 -48 121 -55 128 -130 256 -215 370 l-59 79 29 61 30 60 254 117
c140 64 257 117 262 117 4 1 7 -215 7 -480z m-1101 296 c81 -14 114 -25 76
-25 -10 0 -51 -16 -91 -35 -40 -19 -74 -35 -76 -35 -2 0 -1 25 0 55 2 30 5 55
5 55 1 0 40 -7 86 -15z m3125 -220 c32 -74 56 -143 53 -153 -3 -9 -50 -125
-105 -257 -54 -132 -127 -314 -162 -405 -35 -91 -72 -176 -84 -188 l-21 -24
-6 70 c-15 163 -103 253 -297 303 -231 60 -616 16 -954 -108 l-107 -40 -58 59
c-32 33 -84 78 -116 100 -32 22 -57 41 -55 43 2 2 104 41 228 88 480 181 1192
464 1510 600 58 25 108 46 111 46 3 1 32 -60 63 -134z m386 -720 c0 -2 -11
-68 -25 -147 -111 -641 -76 -1407 95 -2083 45 -178 129 -445 170 -540 18 -41
17 -44 -5 -136 -78 -325 -108 -601 -108 -991 l0 -297 -46 -10 c-33 -7 -48 -6
-53 2 -16 27 -130 356 -177 514 -116 389 -183 711 -233 1123 -20 163 -22 233
-22 590 -1 327 3 434 17 555 63 526 155 888 358 1403 7 18 29 32 29 17z m888
-369 c205 -91 386 -173 403 -181 l30 -16 -60 -40 c-167 -111 -351 -367 -505
-702 -30 -66 -56 -121 -59 -123 -6 -7 -77 259 -109 410 -38 181 -74 442 -87
628 -14 189 -14 201 2 195 6 -3 180 -79 385 -171z m-507 -401 c42 -261 108
-524 189 -759 l41 -119 -95 -288 c-53 -158 -96 -296 -96 -306 -1 -45 -21 23
-50 166 -88 443 -110 991 -59 1496 17 177 21 182 35 55 8 -63 23 -173 35 -245z
m-5967 228 c-124 -214 -216 -335 -808 -1053 -193 -234 -421 -512 -506 -617
l-154 -190 -136 67 c-75 37 -164 78 -198 91 -34 13 -62 27 -62 32 0 15 163
187 361 382 335 328 629 588 1046 922 134 107 296 243 360 303 65 60 120 109
121 110 2 0 -9 -21 -24 -47z m1404 -84 c-25 -16 -29 -9 -11 22 17 29 18 29 21
8 2 -12 -2 -26 -10 -30z m5721 -102 c317 -428 873 -1346 1184 -1957 l120 -235
266 -267 c146 -148 263 -268 259 -268 -4 0 -213 -47 -466 -105 -253 -58 -468
-105 -479 -105 -31 0 -275 173 -424 300 l-67 57 212 6 c184 5 400 29 467 51 8
3 47 14 87 26 67 19 89 38 63 55 -5 3 -219 -4 -475 -16 l-466 -21 -73 68 c-83
78 -277 285 -277 296 0 4 12 3 26 -2 124 -47 503 -121 738 -144 160 -16 447
-21 505 -10 29 6 41 26 23 38 -4 2 -84 14 -177 26 -364 45 -695 104 -1037 186
l-198 48 -73 100 c-207 288 -377 603 -498 925 l-46 124 57 132 c143 325 272
530 429 677 43 40 104 87 136 105 55 29 61 30 87 17 16 -8 59 -56 97 -107z
m-4389 -11 c0 -1 -56 -117 -124 -257 -384 -787 -644 -1528 -676 -1929 -36
-460 -34 -1145 6 -1841 9 -154 14 -282 13 -283 -2 -2 -197 -47 -433 -101 -349
-79 -430 -95 -437 -84 -5 8 -50 114 -100 236 -66 161 -97 224 -111 229 -22 7
-48 -11 -48 -35 0 -8 37 -116 82 -238 44 -123 79 -225 77 -227 -8 -8 -639
-149 -644 -144 -19 18 -198 765 -250 1038 -31 166 -75 454 -75 496 0 16 30
100 66 185 36 84 207 494 381 909 174 415 317 757 320 760 2 2 12 -1 21 -6 11
-7 21 -37 30 -90 37 -225 162 -467 334 -649 95 -101 133 -124 177 -106 42 18
71 67 205 343 172 356 368 690 643 1096 215 320 504 701 531 702 6 0 12 -2 12
-4z m131 -52 l46 -17 6 -76 c4 -42 13 -159 21 -261 26 -320 36 -580 36 -928 0
-368 -9 -555 -41 -849 -12 -106 -18 -204 -15 -218 9 -37 74 -65 153 -65 33 0
112 9 175 19 274 47 551 175 708 327 37 36 60 48 133 69 81 23 247 100 343
159 l40 25 12 -190 c36 -565 151 -1049 348 -1468 30 -63 53 -115 52 -117 -3
-2 -412 -96 -1678 -384 -316 -72 -600 -137 -630 -144 l-55 -13 -1 61 c-1 96
-46 167 -126 201 -86 35 -179 6 -229 -72 -28 -44 -30 -54 -27 -123 2 -59 8
-82 26 -108 26 -36 29 -34 -65 -55 l-61 -14 -6 61 c-3 34 -10 142 -16 241 -40
715 -40 1399 1 1835 27 291 229 906 489 1490 111 250 297 630 307 630 4 0 29
-7 54 -16z m1773 -389 c-39 -158 -96 -454 -115 -593 -6 -51 -15 -89 -19 -85
-8 9 -90 214 -90 225 0 4 20 39 45 77 58 90 62 100 86 254 21 129 21 131 72
198 28 38 52 67 53 66 1 -1 -13 -65 -32 -142z m4333 -260 l74 -56 -36 -33
c-46 -43 -48 -85 -6 -127 48 -48 119 -34 144 28 l14 35 79 -73 c43 -40 81 -77
82 -81 2 -4 -8 -8 -21 -8 -36 0 -77 -52 -77 -97 0 -25 8 -43 29 -64 52 -51
128 -33 157 37 l14 34 71 -77 71 -76 -30 -13 c-83 -35 -83 -153 0 -188 43 -18
84 -8 117 29 l29 33 50 -66 51 -67 -20 -21 c-40 -43 -41 -113 -3 -155 10 -11
34 -24 54 -30 30 -9 43 -8 67 5 l31 15 36 -59 c27 -46 34 -67 30 -89 -8 -37
20 -95 57 -122 l29 -21 -46 -44 c-25 -25 -49 -44 -54 -42 -10 4 -90 77 -90 82
0 2 18 22 40 44 33 33 40 46 40 80 0 79 -83 138 -152 109 -53 -23 -73 -52 -73
-109 0 -47 3 -53 42 -88 l43 -38 -35 -26 c-45 -35 -68 -79 -60 -116 3 -16 24
-48 45 -73 l39 -44 -48 -47 -47 -46 -29 31 c-67 70 -127 74 -195 13 l-38 -35
-34 31 c-18 17 -43 33 -55 36 -25 7 -32 34 -8 34 8 0 32 16 54 35 21 19 42 35
46 35 4 0 27 -18 51 -40 47 -44 77 -50 124 -25 100 52 91 195 -14 224 -50 13
-85 2 -126 -40 l-38 -39 -40 40 c-33 34 -46 40 -81 40 -27 0 -41 4 -41 13 0 9
9 12 28 10 64 -9 131 71 118 140 -14 72 -114 114 -173 72 -21 -15 -22 -14 -33
27 -7 24 -29 105 -51 181 -37 127 -38 139 -24 160 26 37 19 94 -14 128 -16 16
-37 29 -45 29 -9 0 -21 12 -26 26 -13 33 -13 34 5 34 31 0 72 29 85 59 26 63
-22 131 -91 131 -21 0 -41 -4 -44 -10 -15 -25 -34 -4 -65 73 -19 45 -53 123
-76 173 l-42 92 21 21 c12 11 26 21 31 21 5 0 42 -25 83 -55z m963 -38 c54
-39 74 -59 72 -73 -1 -10 -4 -30 -5 -42 -2 -27 11 -39 -115 107 -30 33 -48 61
-40 61 7 0 47 -24 88 -53z m315 -228 c30 -23 55 -43 55 -45 0 -1 -11 -15 -25
-30 -18 -20 -25 -38 -25 -68 0 -53 21 -82 69 -97 31 -9 43 -8 70 5 17 10 37
28 43 41 6 14 15 25 21 25 10 0 137 -109 137 -119 0 -3 -13 -12 -29 -19 -37
-16 -65 -72 -56 -112 8 -39 50 -78 90 -86 44 -8 90 17 112 61 l18 34 69 -64
c38 -36 68 -66 65 -68 -2 -2 -18 -9 -36 -16 -56 -22 -83 -88 -59 -143 15 -38
51 -73 83 -82 33 -10 85 19 114 64 l26 39 47 -55 c26 -30 46 -58 44 -62 -2 -5
-23 -26 -46 -47 l-44 -39 -17 22 c-26 35 -73 62 -106 62 -39 0 -105 -44 -105
-69 0 -21 -27 -11 -60 24 -18 19 -46 37 -62 40 -30 7 -39 25 -11 25 28 0 81
48 93 84 9 27 8 42 -4 70 -16 39 -67 76 -104 76 -30 0 -78 -25 -91 -47 -5 -10
-11 -16 -13 -13 -2 3 -21 32 -42 64 -37 57 -38 61 -26 95 27 73 8 120 -58 148
-18 7 -43 11 -55 8 -20 -5 -32 5 -80 69 -31 41 -57 83 -57 93 -1 31 -25 64
-65 86 -21 12 -45 32 -53 45 -14 21 -13 22 20 22 19 0 43 7 54 15 24 18 31 15
99 -36z m-3908 -279 c88 -184 175 -337 295 -517 48 -73 88 -135 88 -137 0 -3
-12 -1 -26 4 -42 16 -64 12 -64 -11 0 -16 19 -29 88 -62 86 -41 92 -46 199
-172 61 -72 161 -179 222 -240 61 -60 111 -118 111 -127 0 -11 11 -20 28 -24
15 -4 56 -33 92 -64 106 -92 217 -179 353 -275 111 -79 124 -91 104 -97 -12
-4 -210 -51 -440 -103 -293 -67 -423 -93 -435 -86 -36 19 -310 310 -385 409
-213 280 -382 602 -497 953 l-41 126 31 109 c17 60 63 206 102 324 l71 215 15
-35 c9 -19 49 -105 89 -190z m-8045 -438 l157 -77 -96 -122 c-53 -67 -99 -120
-104 -118 -7 5 -129 366 -129 385 0 5 3 10 8 10 4 0 78 -35 164 -78z m12485
-278 c34 -37 34 -54 -1 -83 -13 -11 -19 -5 -41 39 -21 41 -24 55 -14 66 16 20
18 19 56 -22z m261 -7 l43 -44 -41 -36 c-22 -21 -44 -37 -48 -37 -4 0 -24 17
-44 38 l-37 37 37 42 c20 23 39 42 42 42 3 1 25 -19 48 -42z m776 -63 c-35
-46 -49 -48 -89 -13 l-35 31 38 43 37 44 37 -36 37 -36 -25 -33z m-554 36 c31
-49 32 -51 15 -70 -10 -11 -21 -20 -24 -20 -3 0 -23 16 -44 36 l-37 35 26 34
c14 19 28 35 29 35 2 0 17 -23 35 -50z m-1250 -230 l44 -40 -39 -40 c-22 -22
-44 -40 -50 -40 -6 0 -31 16 -54 36 l-42 37 42 43 c24 24 46 44 49 44 4 0 26
-18 50 -40z m1010 10 c19 -19 19 -19 -18 -30 -20 -5 -46 -10 -56 -10 -17 0
-16 4 9 30 34 35 39 36 65 10z m-5070 -107 c136 -288 324 -557 540 -774 l146
-146 -421 -95 c-231 -53 -422 -94 -424 -92 -11 11 -12 446 -2 584 18 233 81
641 100 639 3 0 31 -52 61 -116z m4258 41 c13 -31 21 -59 18 -62 -3 -3 -26 12
-51 33 l-46 37 22 24 c12 13 25 24 28 24 3 0 16 -25 29 -56z m-452 -246 c-9
-5 -38 -12 -65 -15 -66 -8 -73 9 -25 58 l39 40 34 -37 c29 -32 32 -38 17 -46z
m-272 33 l37 -38 -38 -32 c-20 -17 -40 -31 -43 -31 -8 1 -72 61 -68 65 1 2 17
20 33 39 17 19 32 35 35 35 3 1 23 -16 44 -38z m486 19 c0 -5 -7 -10 -16 -10
-8 0 -12 5 -9 10 3 6 10 10 16 10 5 0 9 -4 9 -10z m-10022 -1105 c-7 -7 -118
36 -118 45 0 7 9 28 66 157 l17 38 20 -118 c11 -64 18 -120 15 -122z m-227
-226 c9 -18 7 -25 -14 -43 -46 -38 -59 -93 -37 -150 19 -50 103 -81 150 -56
16 8 23 2 49 -40 17 -28 31 -52 31 -54 0 -3 -23 11 -51 30 -76 51 -120 43
-184 -34 l-27 -32 -25 37 c-36 53 -40 94 -13 131 16 21 23 44 22 74 0 33 9 57
37 100 20 32 39 58 43 58 4 0 12 -10 19 -21z m-36 -487 l38 -43 -31 -32 c-17
-17 -34 -28 -38 -24 -11 11 -33 118 -27 133 7 20 13 16 58 -34z m258 -3 l30
-32 -39 -33 c-22 -18 -42 -33 -45 -34 -3 0 -18 13 -33 29 l-29 30 39 35 c22
20 41 36 43 36 2 0 17 -14 34 -31z m-2580 -249 c21 -21 37 -41 37 -43 0 -2
-18 -23 -40 -47 l-40 -44 -40 39 c-22 22 -40 44 -40 49 0 11 70 86 80 86 4 0
23 -18 43 -40z m249 3 c21 -20 38 -42 38 -47 0 -6 -17 -27 -37 -48 l-37 -38
-43 42 -42 42 37 42 c20 23 39 43 42 43 2 1 21 -16 42 -36z m2320 -10 c35 -34
35 -43 -2 -78 l-30 -29 -35 34 -35 34 32 33 c18 18 34 33 37 33 3 0 18 -12 33
-27z m249 -23 c11 -35 10 -42 -6 -60 -19 -20 -19 -20 -52 12 l-33 32 32 33
c17 18 35 30 39 27 5 -3 14 -23 20 -44z m-2387 -28 l17 -34 -30 23 c-34 25
-38 35 -18 42 15 5 11 9 31 -31z m1102 -37 c-8 -8 -21 -15 -28 -15 -8 1 -6 6
6 15 26 20 42 19 22 0z m-3082 -159 c20 -24 36 -48 36 -52 0 -10 -72 -74 -84
-74 -19 0 -35 37 -36 80 0 43 21 90 39 90 5 0 25 -20 45 -44z m519 -7 l41 -40
-42 -42 -42 -42 -42 42 -42 43 39 40 c21 22 41 40 43 40 2 0 23 -18 45 -41z
m1541 1 l37 -41 -33 -34 c-18 -19 -36 -35 -41 -35 -14 0 -67 54 -67 69 0 13
50 79 61 80 4 1 23 -17 43 -39z m-1290 -74 c-22 -19 -41 -36 -44 -36 -3 0 -21
14 -40 30 l-35 31 45 39 44 40 34 -34 34 -34 -38 -36z m516 63 l33 -40 -29
-30 c-15 -16 -33 -29 -39 -29 -6 0 -26 16 -45 35 l-34 35 34 35 c19 19 37 35
41 35 4 0 22 -18 39 -41z m260 6 l34 -35 -36 -37 -37 -36 -35 29 c-19 16 -35
33 -35 38 -1 12 52 74 65 75 5 1 25 -15 44 -34z m1286 -74 l-36 -36 -35 36
-35 35 35 39 36 39 35 -39 36 -38 -36 -36z m-1031 69 l29 -30 -29 -30 c-16
-16 -34 -30 -40 -30 -6 0 -24 14 -41 31 l-29 31 35 29 c19 16 37 29 40 29 4 0
19 -13 35 -30z m1305 -36 c0 -6 -11 -21 -25 -34 l-26 -24 -32 33 -32 32 35 30
35 30 22 -28 c13 -15 23 -33 23 -39z m267 10 c2 0 -11 -17 -29 -38 l-31 -37
-29 28 c-35 33 -35 40 -1 75 l27 28 30 -27 c17 -16 32 -28 33 -29z m-1107 -17
c41 -14 49 -27 26 -42 -12 -8 -23 -3 -48 23 -35 35 -32 38 22 19z m295 -37
c-15 -16 -21 -18 -33 -8 -12 11 -10 14 14 24 36 15 42 10 19 -16z m-2300 -250
c-21 -22 -42 -40 -45 -40 -12 1 -82 70 -78 79 1 5 19 28 38 51 l34 41 45 -46
45 -45 -39 -40z m770 80 l39 -40 -34 -35 c-19 -19 -39 -35 -45 -35 -6 0 -26
15 -44 34 l-33 34 33 41 c18 23 35 41 39 41 3 0 24 -18 45 -40z m-523 -7 l38
-37 -32 -33 c-18 -18 -35 -33 -39 -33 -4 0 -24 15 -45 34 l-39 35 34 35 c19
20 37 36 40 36 3 0 22 -17 43 -37z m258 -5 l34 -40 -32 -29 -33 -30 -28 20
c-56 40 -58 48 -21 86 19 19 36 35 39 34 4 0 22 -19 41 -41z m549 -38 c0 -3
-15 -17 -33 -32 l-32 -26 -38 32 -38 32 38 38 38 38 32 -39 c18 -21 33 -40 33
-43z m743 43 l38 -37 -32 -33 c-18 -18 -36 -33 -42 -33 -6 0 -25 14 -42 31
l-33 32 32 38 c18 21 34 39 37 39 2 0 21 -17 42 -37z m-2061 -9 l34 -35 -39
-35 c-44 -39 -45 -40 -62 -16 -19 24 -17 82 3 104 22 24 24 24 64 -18z m1548
7 l33 -30 -35 -36 -35 -36 -37 32 -36 32 32 33 c18 19 36 34 39 34 4 0 21 -13
39 -29z m256 -1 l29 -30 -34 -35 -34 -35 -35 35 -35 35 29 30 c36 37 44 37 80
0z m533 -18 c13 -11 10 -18 -14 -43 -15 -16 -31 -29 -36 -29 -4 0 -22 13 -40
29 l-32 28 33 32 c36 35 32 36 89 -17z m473 33 c0 -5 -9 -11 -21 -13 -15 -3
-18 1 -14 13 7 17 35 17 35 0z m-232 -19 c30 -31 21 -43 -35 -52 -63 -9 -77 7
-39 46 35 36 45 37 74 6z m-2326 -250 c15 -19 27 -39 27 -43 0 -4 -14 -21 -31
-37 l-30 -30 -35 36 -36 35 32 37 c18 20 35 36 39 36 3 0 18 -16 34 -34z
m-258 -6 l29 -30 -32 -32 c-31 -31 -32 -31 -52 -13 -22 20 -26 55 -10 86 15
27 32 24 65 -11z m519 -3 c15 -19 26 -36 26 -38 0 -3 -16 -13 -35 -24 l-36
-19 -27 27 -26 27 29 30 c16 16 32 30 36 30 5 0 19 -15 33 -33z m518 -1 l27
-33 -34 -33 c-34 -33 -35 -33 -49 -14 -37 49 -39 60 -15 88 29 33 38 32 71 -8z
m277 -30 c0 -6 -14 -22 -30 -35 l-30 -23 -25 23 c-30 29 -30 36 3 71 l27 28
28 -27 c15 -15 28 -32 27 -37z m-534 27 l24 -28 -31 -27 c-22 -20 -35 -25 -47
-19 -20 11 -56 50 -50 55 6 6 74 46 77 46 2 0 14 -12 27 -27z m760 7 c10 -11
16 -22 14 -24 -2 -2 -26 -7 -54 -11 l-50 -7 29 31 c35 37 37 37 61 11z m-1521
-278 c2 -4 -9 -22 -25 -41 -28 -34 -29 -34 -49 -16 -24 22 -26 52 -4 83 l15
22 29 -20 c16 -12 31 -24 34 -28z m241 18 c33 -34 25 -54 -26 -65 -29 -7 -69
14 -69 35 0 9 51 60 59 60 4 0 20 -13 36 -30z m250 11 c3 -6 -11 -15 -32 -20
-53 -15 -58 -14 -32 9 26 21 54 26 64 11z"/>
<path d="M6338 17050 c-43 -13 -130 -66 -160 -97 -33 -34 -58 -92 -58 -134 0
-17 11 -68 25 -113 33 -107 55 -205 47 -209 -4 -1 -34 0 -68 3 l-60 5 14 88
c20 124 13 143 -93 246 l-85 84 -90 -5 c-76 -5 -97 -10 -130 -32 -57 -37 -97
-97 -110 -164 -6 -31 -14 -70 -17 -86 -5 -27 -6 -28 -16 -10 -19 35 -166 173
-192 180 -71 18 -212 -45 -265 -118 -47 -64 -48 -109 -7 -256 20 -70 38 -139
41 -153 l6 -26 -65 1 c-75 1 -74 0 -54 111 19 99 10 120 -86 218 -96 97 -111
104 -219 88 -115 -16 -181 -80 -206 -196 -22 -108 -12 -105 -94 -27 -43 40
-89 75 -111 82 -61 20 -208 9 -283 -22 l-63 -26 -43 44 c-50 50 -77 59 -153
50 -102 -12 -167 -62 -200 -155 -15 -43 -22 -51 -55 -60 -49 -15 -107 -66
-128 -113 l-17 -37 -34 35 c-42 44 -79 64 -119 64 -36 0 -176 -68 -204 -99
-11 -12 -27 -21 -38 -21 -10 0 -54 36 -99 80 -44 44 -91 83 -105 86 -36 9
-139 -3 -172 -20 -68 -36 -111 -107 -126 -207 -6 -43 -9 -46 -50 -57 -52 -14
-120 -83 -135 -138 -14 -51 -14 -149 0 -177 6 -12 32 -43 56 -68 l45 -47 -57
-229 c-44 -175 -56 -238 -51 -266 4 -23 13 -37 22 -37 8 0 19 -12 25 -27 16
-42 132 -149 169 -157 77 -15 126 -7 179 28 46 31 56 34 103 29 76 -7 205 13
265 43 93 45 164 147 199 284 18 67 19 69 44 62 59 -17 164 14 223 67 18 15
20 14 38 -8 10 -13 19 -32 19 -42 0 -30 170 -195 209 -204 20 -4 60 0 104 11
62 15 78 24 119 66 l47 48 69 0 c123 0 223 42 320 134 53 50 107 130 132 196
7 19 14 36 15 38 1 1 46 -42 101 -96 54 -54 115 -106 136 -115 52 -25 147 -22
206 5 61 28 186 155 232 234 l35 62 37 -34 c20 -18 52 -36 71 -39 35 -7 140
16 188 40 37 20 85 77 99 120 l12 36 93 -90 c71 -69 103 -92 136 -101 151 -41
297 58 435 296 10 18 14 17 53 -19 33 -30 49 -37 82 -37 62 0 160 28 198 57
46 36 81 114 81 184 0 164 -42 423 -96 587 -34 104 -37 109 -112 186 -98 99
-135 117 -204 96z m33 -112 c0 -10 2 -10 6 0 4 10 8 10 19 1 15 -12 19 -35 7
-42 -5 -2 -3 -2 4 -1 11 3 28 -35 36 -81 2 -11 9 -31 14 -45 28 -68 73 -370
73 -492 0 -20 -7 -44 -16 -52 -8 -9 -12 -16 -7 -16 23 0 -40 -28 -86 -38 -48
-11 -56 -10 -73 5 -16 14 -19 28 -16 75 2 32 0 58 -3 58 -3 0 -9 39 -13 86 -7
101 -37 246 -73 362 -25 78 -25 86 -11 110 8 15 39 39 68 55 60 30 70 32 71
15z m-518 -139 c16 -18 17 -28 8 -67 -5 -26 -13 -82 -17 -124 -4 -43 -10 -78
-13 -78 -7 0 -5 -209 3 -230 3 -8 7 -26 9 -40 2 -14 11 -39 20 -57 20 -38 21
-47 5 -37 -8 4 -10 3 -5 -2 5 -5 12 -9 15 -9 4 0 13 -4 19 -8 8 -5 22 1 36 17
18 19 27 22 42 14 19 -9 19 -9 0 7 -17 14 -18 17 -5 25 8 5 15 13 15 17 2 23
17 63 23 59 4 -2 8 7 8 20 2 30 50 94 70 94 8 0 35 -5 59 -11 53 -13 63 -39
40 -104 -25 -76 -77 -175 -88 -168 -6 3 -7 1 -3 -6 16 -25 -90 -140 -162 -178
-78 -41 -157 -4 -227 107 -53 84 -67 145 -71 310 -4 185 33 429 64 422 8 -1
11 2 8 7 -9 14 11 23 58 29 23 2 43 6 45 8 10 9 28 3 44 -17z m-568 -99 c-3
-5 0 -7 8 -4 8 3 19 -1 25 -9 14 -17 68 -179 75 -224 3 -17 7 -35 10 -40 6
-10 19 -106 21 -148 1 -16 4 -32 8 -35 3 -3 10 -59 13 -125 7 -114 6 -121 -15
-148 -19 -24 -24 -26 -38 -15 -10 9 -13 9 -9 1 10 -15 1 -20 -54 -28 -67 -10
-75 2 -83 131 -13 182 -32 290 -82 454 -21 70 -24 90 -15 114 8 19 16 26 27
22 8 -3 12 -1 9 4 -3 5 16 20 42 34 52 27 68 31 58 16z m-504 -147 c8 -9 7
-39 -5 -105 -31 -188 -36 -314 -16 -414 11 -57 51 -134 69 -134 5 0 21 15 35
33 14 17 31 39 38 47 7 8 13 20 13 25 0 6 9 34 20 64 14 37 29 60 50 72 16 10
32 15 35 11 3 -4 20 -8 38 -9 40 -1 62 -18 62 -48 0 -43 -93 -245 -112 -245
-5 0 -7 -4 -4 -9 7 -11 -81 -104 -130 -137 -21 -14 -52 -28 -71 -31 -39 -7
-96 14 -89 33 3 8 0 11 -8 8 -22 -8 -92 82 -94 120 0 5 -5 12 -10 15 -37 23
-64 288 -43 431 6 41 12 82 12 90 7 96 36 170 73 186 38 17 123 15 137 -3z
m-998 -91 c-2 -7 2 -11 9 -9 6 1 14 -6 16 -15 3 -14 -1 -16 -15 -12 -17 6 -17
6 -1 -7 13 -11 18 -32 20 -87 l3 -73 40 35 c22 20 43 36 47 36 4 0 19 12 34
28 15 15 23 20 20 12 -6 -12 -5 -11 6 1 28 34 81 53 186 66 57 7 123 -19 154
-60 48 -63 63 -138 62 -302 0 -166 -5 -204 -35 -285 -21 -60 -105 -174 -120
-164 -5 3 -8 0 -7 -6 4 -15 -73 -59 -91 -52 -8 3 -12 1 -8 -5 9 -15 -102 -35
-151 -27 -48 8 -72 46 -52 83 4 9 10 32 13 51 9 52 45 79 107 77 42 0 58 5 86
27 19 15 38 25 42 22 4 -2 7 8 8 22 1 15 6 52 13 82 22 100 9 277 -22 307 -15
15 -109 24 -100 10 4 -7 -1 -8 -13 -3 -10 4 -15 4 -12 0 4 -4 -12 -20 -35 -37
-23 -17 -48 -39 -55 -49 -7 -10 -18 -15 -24 -12 -6 4 -8 3 -5 -3 3 -5 -12 -29
-35 -54 -22 -24 -35 -36 -28 -26 17 24 7 21 -16 -5 -10 -12 -13 -18 -6 -14 14
8 17 -10 2 -19 -6 -4 -10 -97 -10 -246 0 -189 -3 -239 -12 -233 -10 6 -10 4 0
-7 17 -19 15 -33 -11 -61 -32 -35 -107 -46 -137 -21 -19 17 -21 27 -19 153 0
75 -3 136 -8 137 -5 2 -15 -8 -23 -21 -7 -14 -18 -22 -24 -19 -6 3 -8 3 -4 -2
13 -14 -11 -43 -41 -50 -40 -9 -101 44 -101 87 0 32 62 132 75 120 5 -4 5 -2
1 5 -3 6 6 27 22 45 16 18 31 41 35 50 4 12 13 16 24 12 14 -5 15 -4 4 4 -11
8 -9 16 13 44 16 22 26 48 26 69 0 19 5 40 11 46 12 12 15 12 -51 -1 -19 -4
-42 -8 -50 -10 -8 -1 -25 -6 -38 -10 -35 -12 -58 15 -61 69 -3 58 31 114 57
93 11 -9 14 -9 9 -1 -9 14 50 33 108 35 25 1 33 4 25 12 -17 17 -11 93 10 128
11 18 23 33 27 34 5 0 16 4 26 8 9 5 26 6 37 3 12 -3 18 -1 14 5 -4 6 2 8 12
6 11 -2 18 -10 17 -16z m-1072 -223 c14 -14 19 -28 15 -47 -3 -15 -8 -51 -11
-79 -4 -30 -12 -53 -18 -53 -7 0 -5 -5 3 -10 12 -8 12 -10 1 -10 -8 0 -11 -3
-8 -6 4 -4 12 -2 19 3 17 13 127 35 139 27 5 -3 9 0 9 5 0 7 23 11 54 11 77 0
96 -28 108 -159 14 -141 -5 -465 -29 -504 -4 -7 -9 -21 -10 -32 -5 -26 -47
-96 -72 -117 -34 -29 -82 -50 -102 -45 -11 3 -22 1 -25 -4 -3 -5 -38 -9 -78
-9 -60 0 -76 3 -91 20 -10 11 -14 20 -8 20 5 0 10 7 10 15 0 8 -5 11 -10 8 -6
-4 -8 1 -4 11 4 10 7 27 7 37 0 12 4 17 11 13 7 -4 9 0 5 13 -11 34 33 65 90
63 27 -1 54 -1 61 -1 23 2 35 44 45 150 11 118 11 163 2 235 -4 29 -3 46 3 43
5 -3 10 0 10 8 0 8 -5 13 -11 12 -6 -1 -10 3 -9 9 2 12 -124 -11 -139 -25 -5
-4 -15 -45 -25 -91 -9 -47 -19 -87 -22 -90 -3 -3 -6 -9 -6 -15 -1 -33 -18
-105 -26 -110 -5 -4 -7 -10 -5 -14 3 -4 1 -25 -5 -46 -6 -20 -12 -45 -14 -55
-2 -9 -16 -63 -31 -119 -28 -106 -56 -156 -81 -147 -8 3 -11 1 -8 -4 3 -6 -1
-10 -9 -10 -9 0 -16 4 -16 9 0 4 -11 6 -24 4 -18 -4 -29 2 -40 19 -15 22 -12
37 35 228 28 113 53 212 57 220 3 8 6 22 7 30 3 49 18 119 24 115 5 -2 6 7 3
20 -2 14 -9 28 -15 32 -6 3 -7 1 -3 -5 4 -7 0 -13 -11 -14 -10 0 -23 -2 -30
-2 -6 -1 -15 -5 -19 -9 -12 -11 -23 -8 -44 13 -15 15 -20 33 -20 69 0 69 21
91 111 116 64 18 72 23 74 45 4 71 18 150 26 150 4 0 6 6 3 13 -4 11 35 59 40
49 1 -3 7 -1 46 11 28 10 40 7 61 -14z m489 -49 c13 -7 23 -33 45 -120 1 -3 6
-16 12 -30 6 -14 30 -98 53 -187 50 -188 50 -190 -43 -238 -53 -28 -55 -28
-81 -12 -14 10 -26 24 -26 33 0 9 -21 88 -46 177 -26 89 -48 169 -48 177 -1 9
-5 21 -10 28 -4 6 -4 17 -1 22 3 6 2 10 -3 10 -13 0 -23 40 -14 54 7 11 8 16
11 36 0 6 6 10 12 10 5 0 7 -6 3 -12 -4 -8 -3 -10 2 -5 5 5 9 13 9 18 0 5 5 9
10 8 6 0 9 -6 7 -14 -1 -7 1 -16 6 -19 5 -3 8 9 6 26 -2 17 -1 29 2 25 4 -3
12 -1 19 6 15 15 53 19 75 7z m864 -325 c-4 -8 -11 -15 -16 -15 -6 0 -5 6 2
15 7 8 14 15 16 15 2 0 1 -7 -2 -15z"/>
<path d="M6356 16193 c-6 -14 -5 -15 5 -6 7 7 10 15 7 18 -3 3 -9 -2 -12 -12z"/>
<path d="M5920 15971 c0 -5 7 -12 16 -15 14 -5 15 -4 4 9 -14 17 -20 19 -20 6z"/>
<path d="M5265 16670 c-3 -6 1 -7 9 -4 18 7 21 14 7 14 -6 0 -13 -4 -16 -10z"/>
<path d="M3870 16146 c0 -2 7 -7 16 -10 8 -3 12 -2 9 4 -6 10 -25 14 -25 6z"/>
<path d="M3496 15668 c3 -5 10 -6 15 -3 13 9 11 12 -6 12 -8 0 -12 -4 -9 -9z"/>
<path d="M15938 11813 c7 -3 16 -2 19 1 4 3 -2 6 -13 5 -11 0 -14 -3 -6 -6z"/>
<path d="M17345 10700 c-3 -5 -1 -10 4 -10 6 0 11 5 11 10 0 6 -2 10 -4 10 -3
0 -8 -4 -11 -10z"/>
<path d="M17600 10700 c0 -5 5 -10 11 -10 5 0 7 5 4 10 -3 6 -8 10 -11 10 -2
0 -4 -4 -4 -10z"/>
<path d="M17860 10700 c0 -5 7 -10 15 -10 8 0 15 5 15 10 0 6 -7 10 -15 10 -8
0 -15 -4 -15 -10z"/>
<path d="M17861 10461 c-15 -10 -8 -41 9 -41 15 0 25 29 14 40 -5 5 -15 5 -23
1z"/>
<path d="M16566 10452 c-3 -6 -1 -14 5 -17 15 -10 25 3 12 16 -7 7 -13 7 -17
1z"/>
<path d="M16835 10449 c-10 -15 3 -25 16 -12 7 7 7 13 1 17 -6 3 -14 1 -17 -5z"/>
<path d="M17085 10449 c-4 -6 -5 -13 -2 -16 7 -7 27 6 27 18 0 12 -17 12 -25
-2z"/>
<path d="M17345 10450 c-4 -6 -3 -16 3 -22 6 -6 12 -6 17 2 4 6 3 16 -3 22 -6
6 -12 6 -17 -2z"/>
<path d="M17590 10445 c0 -10 7 -15 18 -13 21 4 19 22 -2 26 -10 2 -16 -3 -16
-13z"/>
<path d="M16060 10439 c0 -5 5 -7 10 -4 6 3 10 8 10 11 0 2 -4 4 -10 4 -5 0
-10 -5 -10 -11z"/>
<path d="M16315 10440 c3 -5 8 -10 11 -10 2 0 4 5 4 10 0 6 -5 10 -11 10 -5 0
-7 -4 -4 -10z"/>
<path d="M16831 10206 c-14 -17 -7 -36 15 -36 15 0 18 18 5 38 -6 10 -10 10
-20 -2z"/>
<path d="M17341 10206 c-14 -16 -9 -46 7 -46 5 0 15 7 22 16 11 12 11 18 -2
30 -13 13 -16 13 -27 0z"/>
<path d="M17590 10205 c-15 -18 -7 -45 13 -45 14 0 44 28 36 33 -2 1 -11 8
-20 15 -13 10 -19 9 -29 -3z"/>
<path d="M17855 10204 c-15 -15 -15 -19 -1 -32 17 -17 46 -10 46 11 0 8 -6 20
-14 26 -11 9 -18 8 -31 -5z"/>
<path d="M16054 10199 c-8 -14 11 -33 25 -25 6 4 11 11 11 16 0 13 -29 20 -36
9z"/>
<path d="M16304 10199 c-11 -19 13 -34 31 -19 13 11 13 15 3 21 -18 12 -26 11
-34 -2z"/>
<path d="M16560 10195 c-10 -12 -9 -16 3 -21 17 -6 37 2 37 16 0 15 -29 19
-40 5z"/>
<path d="M17073 10194 c-8 -22 16 -35 38 -21 13 8 15 15 7 24 -14 18 -37 16
-45 -3z"/>
<path d="M14765 10190 c3 -5 8 -10 11 -10 2 0 4 5 4 10 0 6 -5 10 -11 10 -5 0
-7 -4 -4 -10z"/>
<path d="M15020 10190 c-12 -8 -10 -10 8 -10 13 0 20 4 17 10 -7 12 -6 12 -25
0z"/>
<path d="M15280 10190 c0 -5 6 -10 14 -10 8 0 18 5 21 10 3 6 -3 10 -14 10
-12 0 -21 -4 -21 -10z"/>
<path d="M15532 10189 c2 -6 8 -10 13 -10 5 0 11 4 13 10 2 6 -4 11 -13 11 -9
0 -15 -5 -13 -11z"/>
<path d="M15785 10191 c-3 -5 -1 -12 4 -15 13 -8 42 4 35 15 -7 12 -31 12 -39
0z"/>
<path d="M17335 9950 c-22 -25 -13 -52 17 -48 27 4 36 39 15 56 -11 9 -18 8
-32 -8z"/>
<path d="M17586 9948 c-19 -26 -4 -51 28 -46 29 4 33 43 7 57 -16 9 -23 7 -35
-11z"/>
<path d="M17850 9955 c-6 -8 -10 -22 -8 -32 4 -24 47 -24 62 0 9 15 7 21 -8
33 -25 18 -31 18 -46 -1z"/>
<path d="M14506 9953 c-12 -12 -6 -33 9 -33 8 0 15 6 15 14 0 17 -14 28 -24
19z"/>
<path d="M15532 9947 c-10 -11 -9 -17 3 -27 24 -20 45 4 24 26 -14 13 -17 13
-27 1z"/>
<path d="M15787 9953 c-14 -14 -7 -43 11 -43 30 0 44 21 24 36 -20 15 -26 17
-35 7z"/>
<path d="M16047 9953 c-4 -3 -7 -15 -7 -25 0 -23 38 -25 47 -2 8 21 -24 43
-40 27z"/>
<path d="M16298 9948 c-8 -21 2 -38 23 -38 24 0 37 29 18 41 -20 12 -36 11
-41 -3z"/>
<path d="M16557 9953 c-24 -23 12 -55 38 -33 12 10 13 16 4 26 -12 15 -31 18
-42 7z"/>
<path d="M16820 9944 c-11 -12 -10 -18 3 -32 16 -15 18 -15 33 0 19 18 12 48
-9 48 -8 0 -20 -7 -27 -16z"/>
<path d="M17070 9941 c0 -10 7 -24 16 -31 12 -11 18 -11 30 2 20 20 7 48 -22
48 -17 0 -24 -6 -24 -19z"/>
<path d="M14245 9941 c-7 -12 12 -24 25 -16 11 7 4 25 -10 25 -5 0 -11 -4 -15
-9z"/>
<path d="M14754 9939 c-10 -17 13 -36 27 -22 12 12 4 33 -11 33 -5 0 -12 -5
-16 -11z"/>
<path d="M15020 9936 c0 -20 13 -27 30 -15 13 8 13 10 0 19 -21 14 -30 12 -30
-4z"/>
<path d="M15274 9939 c-10 -17 13 -36 27 -22 12 12 4 33 -11 33 -5 0 -12 -5
-16 -11z"/>
<path d="M13730 9930 c0 -5 4 -10 9 -10 6 0 13 5 16 10 3 6 -1 10 -9 10 -9 0
-16 -4 -16 -10z"/>
<path d="M13988 9928 c9 -9 15 -9 24 0 9 9 7 12 -12 12 -19 0 -21 -3 -12 -12z"/>
<path d="M17078 9699 c-37 -21 -9 -77 32 -64 22 7 27 44 8 63 -14 14 -18 14
-40 1z"/>
<path d="M17334 9702 c-29 -19 -19 -72 14 -72 41 0 57 51 23 70 -23 12 -23 12
-37 2z"/>
<path d="M17580 9695 c-26 -32 13 -81 48 -59 23 15 26 38 7 58 -20 20 -39 20
-55 1z"/>
<path d="M17842 9698 c-27 -27 -6 -68 35 -68 16 0 24 7 29 25 11 43 -34 73
-64 43z"/>
<path d="M15021 9690 c-19 -11 -9 -45 14 -45 13 0 21 8 23 21 3 23 -17 37 -37
24z"/>
<path d="M15270 9685 c-18 -21 -5 -47 22 -43 26 3 37 36 16 49 -18 12 -24 11
-38 -6z"/>
<path d="M15526 9684 c-12 -30 -6 -44 18 -44 28 0 37 17 24 43 -11 21 -34 22
-42 1z"/>
<path d="M15780 9685 c-18 -21 -5 -47 22 -43 26 3 37 36 16 49 -18 12 -24 11
-38 -6z"/>
<path d="M16042 9683 c-20 -38 14 -57 50 -29 17 12 17 14 0 30 -24 21 -39 20
-50 -1z"/>
<path d="M16297 9693 c-12 -11 -8 -40 7 -52 28 -23 68 17 45 45 -12 15 -41 19
-52 7z"/>
<path d="M16544 9678 c-7 -22 19 -52 40 -45 17 6 29 34 23 51 -10 24 -54 21
-63 -6z"/>
<path d="M16817 9693 c-22 -21 0 -63 33 -63 15 0 31 37 24 54 -6 16 -45 22
-57 9z"/>
<path d="M13725 9681 c-8 -15 3 -31 21 -31 9 0 14 7 12 17 -4 20 -24 28 -33
14z"/>
<path d="M13976 9681 c-3 -4 1 -16 8 -26 13 -18 14 -18 25 2 8 17 8 22 -5 27
-20 8 -22 8 -28 -3z"/>
<path d="M14243 9674 c-9 -25 12 -38 31 -18 14 14 15 19 4 25 -19 13 -28 11
-35 -7z"/>
<path d="M14496 9681 c-7 -11 3 -41 14 -41 13 0 32 29 25 40 -8 12 -32 13 -39
1z"/>
<path d="M14747 9676 c-9 -22 13 -37 35 -25 15 8 17 13 7 25 -15 18 -35 18
-42 0z"/>
<path d="M17082 9453 c-22 -8 -34 -41 -22 -63 20 -38 87 -16 78 26 -4 20 -38
43 -56 37z"/>
<path d="M17327 9447 c-32 -22 -11 -77 29 -77 36 0 54 43 29 70 -21 23 -34 25
-58 7z"/>
<path d="M17576 9444 c-19 -18 -20 -28 -6 -55 12 -21 50 -25 68 -7 18 18 14
56 -7 68 -27 14 -37 13 -55 -6z"/>
<path d="M17842 9448 c-17 -17 -15 -65 4 -72 29 -11 53 -6 64 13 14 27 13 37
-6 55 -18 19 -45 21 -62 4z"/>
<path d="M14752 9438 c-17 -17 -15 -48 3 -55 18 -6 58 25 49 38 -11 19 -41 28
-52 17z"/>
<path d="M15015 9436 c-21 -15 -12 -56 13 -56 29 0 45 16 38 38 -9 26 -30 34
-51 18z"/>
<path d="M15264 9436 c-11 -29 0 -51 26 -51 21 0 25 5 25 30 0 24 -5 31 -23
33 -13 2 -24 -3 -28 -12z"/>
<path d="M15521 9436 c-19 -23 -4 -56 25 -56 28 0 42 25 27 49 -14 22 -37 25
-52 7z"/>
<path d="M15770 9431 c-7 -14 -5 -24 8 -41 20 -24 48 -19 57 11 14 42 -44 68
-65 30z"/>
<path d="M16043 9444 c-21 -9 -15 -52 8 -64 27 -15 51 5 47 39 -3 26 -27 36
-55 25z"/>
<path d="M16290 9435 c-27 -32 23 -82 55 -55 20 16 19 56 -1 64 -25 10 -41 7
-54 -9z"/>
<path d="M16540 9431 c-14 -28 18 -66 48 -57 26 9 38 42 22 61 -18 21 -57 18
-70 -4z"/>
<path d="M16811 9436 c-16 -19 -11 -46 12 -60 25 -16 52 4 52 40 0 24 -5 30
-26 32 -14 2 -31 -4 -38 -12z"/>
<path d="M13966 9425 c-3 -8 2 -22 11 -30 14 -15 18 -15 31 -1 8 8 12 22 9 30
-8 20 -43 21 -51 1z"/>
<path d="M14233 9424 c-3 -8 2 -23 11 -32 15 -15 17 -15 32 0 21 21 11 48 -16
48 -11 0 -23 -7 -27 -16z"/>
<path d="M14487 9428 c-6 -18 11 -48 27 -48 8 0 19 7 26 15 10 12 10 18 0 30
-15 18 -47 20 -53 3z"/>
<path d="M16810 9190 c-24 -24 -25 -43 -4 -64 30 -31 84 -9 84 34 0 17 -34 50
-52 50 -5 0 -17 -9 -28 -20z"/>
<path d="M17067 9192 c-32 -35 -15 -82 29 -82 27 0 55 35 47 59 -7 19 -32 41
-48 41 -7 0 -19 -8 -28 -18z"/>
<path d="M17320 9190 c-24 -24 -25 -43 -4 -64 18 -19 55 -21 72 -4 18 18 15
53 -6 71 -24 22 -38 21 -62 -3z"/>
<path d="M17576 9197 c-22 -16 -18 -65 5 -80 47 -29 101 32 64 73 -21 23 -44
25 -69 7z"/>
<path d="M17837 9192 c-46 -51 14 -113 67 -71 31 25 33 42 6 69 -25 25 -52 26
-73 2z"/>
<path d="M14495 9186 c-20 -14 -17 -44 6 -59 24 -15 49 -1 49 27 0 32 -30 50
-55 32z"/>
<path d="M14745 9184 c-19 -20 -16 -43 8 -58 37 -23 77 35 41 61 -23 17 -29
16 -49 -3z"/>
<path d="M15010 9186 c-20 -25 -8 -61 22 -64 37 -4 57 31 32 59 -20 23 -37 24
-54 5z"/>
<path d="M15260 9185 c-7 -9 -10 -25 -6 -40 6 -22 11 -26 39 -23 25 2 33 8 35
26 7 44 -41 70 -68 37z"/>
<path d="M15516 9179 c-27 -40 13 -81 52 -53 26 18 28 37 6 58 -21 22 -40 20
-58 -5z"/>
<path d="M15772 9188 c-33 -33 6 -91 47 -69 28 15 34 41 15 62 -20 22 -45 24
-62 7z"/>
<path d="M16030 9180 c-21 -40 12 -80 54 -64 22 8 31 50 16 69 -18 22 -57 19
-70 -5z"/>
<path d="M16292 9188 c-21 -21 -14 -57 14 -70 23 -11 29 -10 45 11 23 28 23
35 3 55 -18 19 -45 21 -62 4z"/>
<path d="M16540 9185 c-19 -22 -4 -64 25 -71 42 -11 67 24 49 70 -8 20 -57 21
-74 1z"/>
<path d="M13965 9170 c-7 -23 10 -50 30 -50 20 0 37 27 30 50 -4 13 -15 20
-30 20 -15 0 -26 -7 -30 -20z"/>
<path d="M14225 9170 c-14 -44 44 -69 65 -29 9 15 8 24 -1 35 -18 21 -57 18
-64 -6z"/>
<path d="M16812 8934 c-41 -28 -19 -94 32 -94 30 0 46 18 46 51 0 24 -30 59
-50 59 -3 0 -16 -7 -28 -16z"/>
<path d="M17060 8930 c-25 -25 -26 -52 -2 -73 37 -34 92 -11 92 38 0 24 -33
55 -57 55 -7 0 -22 -9 -33 -20z"/>
<path d="M17317 8932 c-20 -22 -22 -63 -5 -80 29 -29 98 -1 98 41 0 21 -38 57
-60 57 -9 0 -24 -8 -33 -18z"/>
<path d="M17570 8930 c-25 -25 -26 -52 -2 -73 40 -36 95 -13 95 39 0 48 -57
70 -93 34z"/>
<path d="M17830 8930 c-24 -24 -25 -38 -4 -68 30 -43 104 -20 104 32 0 50 -63
73 -100 36z"/>
<path d="M14236 8927 c-38 -27 2 -95 42 -71 23 15 27 48 7 68 -20 19 -26 20
-49 3z"/>
<path d="M14485 8924 c-24 -24 -15 -57 18 -69 24 -8 31 -6 43 10 18 24 18 40
-2 59 -20 20 -38 20 -59 0z"/>
<path d="M14740 8926 c-28 -35 11 -93 48 -70 35 22 22 84 -18 84 -10 0 -23 -7
-30 -14z"/>
<path d="M15008 8929 c-21 -12 -24 -49 -6 -67 28 -28 78 -7 78 33 0 40 -35 56
-72 34z"/>
<path d="M15256 8921 c-37 -41 14 -97 60 -66 29 18 31 46 6 68 -24 22 -45 21
-66 -2z"/>
<path d="M15512 8928 c-40 -40 18 -109 59 -72 35 32 18 84 -26 84 -12 0 -26
-5 -33 -12z"/>
<path d="M15766 8924 c-21 -21 -20 -47 2 -67 24 -22 45 -21 65 1 46 51 -19
115 -67 66z"/>
<path d="M16032 8928 c-20 -20 -14 -66 9 -79 27 -14 65 1 74 31 13 42 -51 80
-83 48z"/>
<path d="M16281 8921 c-16 -29 -14 -46 9 -66 41 -37 102 17 73 64 -16 25 -69
26 -82 2z"/>
<path d="M16534 8916 c-15 -24 -15 -28 0 -51 33 -50 110 -14 90 43 -14 39 -66
44 -90 8z"/>
<path d="M16303 8689 c-32 -12 -48 -46 -34 -75 21 -46 94 -39 107 10 12 48
-27 82 -73 65z"/>
<path d="M16560 8693 c-40 -14 -53 -69 -22 -96 34 -31 83 -16 97 30 4 17 -1
29 -19 48 -26 26 -30 27 -56 18z"/>
<path d="M16806 8685 c-25 -25 -29 -54 -12 -80 32 -49 106 -22 106 38 0 46
-62 74 -94 42z"/>
<path d="M17057 8682 c-21 -23 -22 -66 -1 -86 23 -24 70 -20 88 6 21 30 20 50
-4 76 -25 27 -61 28 -83 4z"/>
<path d="M17310 8680 c-55 -55 21 -132 84 -85 26 19 24 65 -4 87 -29 23 -55
23 -80 -2z"/>
<path d="M17561 8673 c-46 -58 24 -128 82 -82 32 25 35 61 7 89 -28 28 -64 25
-89 -7z"/>
<path d="M17827 8682 c-35 -38 -7 -112 42 -112 24 0 57 29 65 56 16 53 -70 97
-107 56z"/>
<path d="M14488 8679 c-21 -12 -24 -59 -6 -77 19 -19 55 -14 72 10 20 29 20
34 -4 58 -22 22 -37 24 -62 9z"/>
<path d="M14735 8670 c-15 -16 -17 -26 -9 -48 17 -50 94 -39 94 14 0 49 -52
70 -85 34z"/>
<path d="M15000 8670 c-23 -23 -25 -38 -7 -62 23 -30 61 -27 83 7 15 23 15 27
0 50 -20 30 -49 32 -76 5z"/>
<path d="M15258 8679 c-27 -16 -23 -65 7 -85 23 -15 27 -15 50 0 60 39 4 121
-57 85z"/>
<path d="M15504 8665 c-33 -50 20 -104 71 -71 30 20 33 56 7 79 -27 24 -59 21
-78 -8z"/>
<path d="M15768 8679 c-24 -14 -23 -61 2 -84 44 -39 108 21 75 71 -16 25 -48
31 -77 13z"/>
<path d="M16027 8672 c-10 -10 -17 -28 -17 -40 0 -22 34 -52 61 -52 22 0 49
32 49 58 0 47 -61 69 -93 34z"/>
<path d="M16287 8429 c-50 -38 -24 -109 39 -109 44 0 71 65 42 102 -22 27 -53
30 -81 7z"/>
<path d="M16534 8424 c-43 -42 -15 -104 47 -104 56 0 78 74 33 109 -35 27 -49
26 -80 -5z"/>
<path d="M16800 8430 c-25 -25 -26 -72 -2 -93 28 -26 77 -22 96 8 22 34 20 52
-9 80 -29 30 -58 32 -85 5z"/>
<path d="M17052 8427 c-12 -13 -22 -32 -22 -44 0 -29 36 -65 65 -65 58 0 86
71 45 112 -27 27 -62 25 -88 -3z"/>
<path d="M17317 8439 c-47 -27 -39 -98 13 -119 67 -28 120 58 67 108 -25 24
-52 27 -80 11z"/>
<path d="M17560 8428 c-28 -31 -23 -75 12 -101 34 -26 73 -16 93 23 36 70 -51
135 -105 78z"/>
<path d="M17820 8423 c-25 -32 -20 -69 12 -95 27 -23 49 -23 82 3 50 39 22
119 -43 119 -20 0 -36 -9 -51 -27z"/>
<path d="M14997 8422 c-36 -39 -13 -94 38 -94 34 0 55 19 55 52 0 52 -60 79
-93 42z"/>
<path d="M15246 8418 c-23 -32 -20 -54 11 -77 58 -47 126 26 73 79 -27 27 -65
26 -84 -2z"/>
<path d="M15506 8424 c-25 -24 -20 -71 9 -90 29 -19 60 -11 81 20 36 56 -43
117 -90 70z"/>
<path d="M15754 8414 c-37 -55 25 -117 80 -80 30 19 35 65 10 90 -25 25 -71
20 -90 -10z"/>
<path d="M16023 8428 c-23 -28 -23 -55 -2 -82 27 -34 64 -32 93 7 19 26 19 30
5 55 -11 20 -24 28 -50 30 -21 2 -40 -2 -46 -10z"/>
<path d="M16560 8193 c-75 -27 -60 -133 19 -133 32 0 71 39 71 70 0 38 -54 76
-90 63z"/>
<path d="M16813 8190 c-72 -29 -47 -130 31 -130 64 0 90 79 40 119 -29 23 -38
24 -71 11z"/>
<path d="M17063 8188 c-30 -14 -44 -59 -29 -89 27 -55 100 -57 125 -2 16 36
14 51 -14 78 -26 27 -47 30 -82 13z"/>
<path d="M17307 8180 c-47 -37 -28 -111 33 -125 38 -9 80 27 80 69 0 42 -17
64 -55 72 -22 4 -38 0 -58 -16z"/>
<path d="M17567 8189 c-61 -36 -25 -139 49 -139 26 0 64 47 64 79 0 52 -66 87
-113 60z"/>
<path d="M17821 8176 c-16 -17 -21 -33 -19 -56 9 -92 142 -87 142 5 0 69 -77
100 -123 51z"/>
<path d="M15247 8172 c-23 -25 -21 -68 3 -92 57 -57 139 31 85 90 -23 25 -67
26 -88 2z"/>
<path d="M15496 8168 c-9 -12 -16 -32 -16 -43 0 -27 40 -65 68 -65 29 0 62 34
62 65 0 57 -83 88 -114 43z"/>
<path d="M15751 8164 c-12 -15 -21 -32 -21 -39 0 -27 41 -65 70 -65 19 0 36 9
49 26 26 34 26 54 1 82 -29 31 -73 29 -99 -4z"/>
<path d="M16016 8168 c-34 -48 -4 -108 53 -108 53 0 82 78 43 113 -27 25 -78
22 -96 -5z"/>
<path d="M16263 8155 c-16 -34 -16 -36 4 -63 26 -36 68 -40 99 -11 47 44 20
109 -47 109 -35 0 -41 -4 -56 -35z"/>
<path d="M16019 7911 c-16 -16 -29 -39 -29 -51 0 -29 44 -70 75 -70 49 0 93
69 67 106 -11 16 -55 44 -70 44 -7 0 -27 -13 -43 -29z"/>
<path d="M16275 7915 c-32 -31 -33 -74 -2 -103 43 -41 109 -19 123 40 5 22 0
33 -24 58 -37 36 -65 38 -97 5z"/>
<path d="M16545 7928 c-49 -26 -58 -69 -24 -112 14 -18 30 -26 53 -26 69 0
101 76 51 125 -26 27 -49 31 -80 13z"/>
<path d="M16796 7919 c-20 -16 -26 -29 -26 -58 0 -72 79 -102 127 -47 12 15
23 33 23 41 0 27 -23 63 -47 74 -34 16 -47 14 -77 -10z"/>
<path d="M17045 7915 c-29 -28 -32 -61 -9 -93 25 -36 51 -46 85 -31 61 25 70
96 17 133 -32 23 -65 20 -93 -9z"/>
<path d="M17318 7933 c-22 -6 -46 -58 -40 -89 5 -28 46 -64 73 -64 9 0 31 12
48 26 70 59 11 152 -81 127z"/>
<path d="M17555 7915 c-64 -63 16 -169 90 -121 51 33 56 86 13 126 -30 27 -73
26 -103 -5z"/>
<path d="M17815 7915 c-33 -33 -32 -70 4 -106 36 -36 73 -37 106 -4 50 49 15
135 -55 135 -19 0 -40 -9 -55 -25z"/>
<path d="M15746 7908 c-35 -49 0 -118 58 -118 31 0 66 36 66 68 0 46 -26 72
-70 72 -29 0 -43 -6 -54 -22z"/>
<path d="M16294 7680 c-28 -11 -54 -48 -54 -78 0 -64 99 -97 139 -46 27 34 27
67 -1 98 -27 29 -55 38 -84 26z"/>
<path d="M16543 7680 c-47 -19 -58 -92 -20 -128 40 -37 98 -28 123 19 34 66
-34 138 -103 109z"/>
<path d="M16790 7662 c-33 -34 -38 -66 -14 -100 45 -65 144 -35 144 43 0 42
-26 73 -67 81 -27 5 -37 1 -63 -24z"/>
<path d="M17047 7670 c-33 -26 -41 -63 -23 -99 30 -56 103 -62 140 -9 38 54
-4 128 -73 128 -10 0 -30 -9 -44 -20z"/>
<path d="M17313 7680 c-52 -21 -59 -95 -12 -134 35 -30 49 -32 88 -11 98 50
27 186 -76 145z"/>
<path d="M17548 7660 c-25 -26 -29 -36 -24 -62 8 -40 31 -65 66 -73 81 -18
133 81 75 140 -36 35 -78 33 -117 -5z"/>
<path d="M17811 7664 c-44 -56 -17 -130 51 -141 32 -5 41 -1 68 25 37 38 38
70 4 111 -35 42 -92 44 -123 5z"/>
<path d="M16010 7658 c-44 -48 -9 -128 56 -128 61 0 95 76 58 128 -21 31 -85
31 -114 0z"/>
<path d="M16540 7427 c-79 -40 -53 -157 35 -157 80 0 115 93 54 144 -34 29
-52 32 -89 13z"/>
<path d="M16799 7425 c-78 -42 -48 -155 40 -155 50 0 80 25 88 72 5 32 1 41
-25 68 -33 33 -62 37 -103 15z"/>
<path d="M17039 7411 c-48 -48 -36 -111 26 -137 61 -25 114 11 114 76 0 39
-13 61 -46 78 -35 19 -63 14 -94 -17z"/>
<path d="M17304 7425 c-12 -8 -27 -28 -34 -45 -37 -89 90 -160 150 -83 31 40
23 98 -19 130 -22 17 -72 16 -97 -2z"/>
<path d="M17547 7415 c-38 -36 -37 -86 2 -126 33 -32 58 -36 100 -14 40 20 57
66 41 105 -26 63 -94 80 -143 35z"/>
<path d="M17806 7409 c-35 -41 -34 -83 3 -120 60 -60 150 -22 151 64 0 82
-101 119 -154 56z"/>
<path d="M16779 7151 c-46 -47 -35 -121 23 -146 66 -27 128 13 128 82 0 46
-45 93 -90 93 -22 0 -41 -9 -61 -29z"/>
<path d="M17048 7165 c-32 -18 -52 -72 -39 -106 39 -103 181 -75 181 36 0 60
-85 102 -142 70z"/>
<path d="M17289 7151 c-48 -48 -38 -116 22 -147 74 -38 160 40 128 117 -25 61
-103 77 -150 30z"/>
<path d="M17545 7156 c-34 -34 -40 -68 -20 -109 29 -62 95 -72 148 -23 29 27
35 67 16 109 -23 50 -104 63 -144 23z"/>
<path d="M17805 7150 c-22 -23 -29 -39 -28 -66 3 -99 145 -126 183 -35 40 97
-82 177 -155 101z"/>
<path d="M17047 6919 c-23 -13 -47 -62 -47 -94 0 -39 28 -74 70 -86 33 -10 43
-9 72 8 66 38 73 110 16 158 -31 26 -79 33 -111 14z"/>
<path d="M17303 6918 c-31 -15 -56 -72 -48 -108 8 -37 58 -80 94 -80 55 0 101
47 101 103 0 74 -77 119 -147 85z"/>
<path d="M17539 6901 c-64 -64 -16 -171 76 -171 38 0 95 59 95 97 0 56 -47
102 -103 103 -29 0 -45 -7 -68 -29z"/>
<path d="M17814 6912 c-45 -36 -55 -85 -27 -132 52 -88 183 -52 183 50 0 81
-96 131 -156 82z"/>
<path d="M17298 6664 c-35 -19 -48 -43 -48 -91 1 -41 11 -59 50 -86 77 -53
180 27 150 117 -22 68 -90 94 -152 60z"/>
<path d="M17534 6646 c-38 -38 -43 -70 -19 -116 52 -100 195 -67 195 45 0 97
-107 140 -176 71z"/>
<path d="M17799 6651 c-23 -23 -29 -38 -29 -71 0 -52 13 -76 50 -95 71 -37
146 3 157 82 5 39 2 46 -30 78 -29 29 -42 35 -77 35 -33 0 -48 -6 -71 -29z"/>
<path d="M17548 6413 c-66 -41 -65 -147 2 -186 88 -52 192 31 160 129 -22 64
-103 93 -162 57z"/>
<path d="M17812 6414 c-26 -18 -52 -65 -52 -94 0 -34 28 -78 60 -95 62 -32
129 -7 155 57 13 34 13 42 0 76 -26 64 -110 93 -163 56z"/>
<path d="M7166 15949 c2 -3 -8 -6 -22 -6 -14 0 -31 -6 -37 -12 -13 -13 2 -14
23 -1 9 5 19 5 27 -2 9 -7 13 -7 13 2 0 9 4 9 18 -1 15 -13 16 -12 4 3 -10 13
-10 17 0 21 7 3 3 4 -9 4 -12 -1 -20 -4 -17 -8z"/>
<path d="M7360 15952 c0 -5 11 -14 25 -20 14 -6 25 -10 25 -8 0 2 -11 11 -25
20 -14 9 -25 13 -25 8z"/>
<path d="M7445 15930 c-16 -7 -17 -9 -3 -9 9 -1 20 4 23 9 7 11 7 11 -20 0z"/>
<path d="M7077 15913 c-4 -3 -7 -11 -7 -17 0 -6 5 -5 12 2 6 6 9 14 7 17 -3 3
-9 2 -12 -2z"/>
<path d="M7543 15895 c0 -17 4 -22 21 -19 11 2 15 2 9 -2 -7 -3 -13 -15 -14
-27 0 -15 -2 -17 -6 -7 -4 8 -12 20 -19 27 -10 11 -12 10 -11 -6 0 -11 4 -18
8 -15 4 2 10 -3 13 -12 4 -11 2 -15 -7 -11 -8 3 -13 -3 -13 -14 0 -25 8 -24
26 4 38 59 39 64 15 85 l-22 20 0 -23z"/>
<path d="M7091 15889 c-26 -21 -57 -26 -45 -7 4 7 3 8 -4 4 -20 -12 -13 -26
11 -26 13 0 27 -4 33 -9 5 -6 14 -4 22 5 9 10 9 14 1 14 -8 0 -8 4 1 15 19 23
8 26 -19 4z"/>
<path d="M6983 15815 c-15 -17 -16 -25 -3 -25 5 0 14 9 20 20 12 23 1 26 -17
5z"/>
<path d="M6938 15793 c-14 -16 -14 -20 1 -35 15 -15 16 -14 16 18 0 19 0 34
-1 34 0 0 -8 -8 -16 -17z"/>
<path d="M7003 15785 c-8 -23 0 -24 20 -3 14 15 15 18 2 18 -9 0 -18 -7 -22
-15z"/>
<path d="M7447 15753 c-3 -5 -1 -17 3 -28 5 -13 1 -30 -12 -50 l-20 -30 25 29
c24 28 32 66 14 66 -4 0 -5 5 -2 10 3 6 4 10 1 10 -3 0 -7 -3 -9 -7z"/>
<path d="M7483 15744 c0 -7 6 -10 14 -7 7 3 13 8 13 12 0 4 -6 8 -13 8 -8 0
-14 -6 -14 -13z"/>
<path d="M6935 15700 c-3 -5 -1 -10 4 -10 6 0 11 5 11 10 0 6 -2 10 -4 10 -3
0 -8 -4 -11 -10z"/>
<path d="M6870 15696 c0 -2 7 -7 16 -10 8 -3 12 -2 9 4 -6 10 -25 14 -25 6z"/>
<path d="M6839 15673 c-7 -10 -9 -15 -5 -11 5 4 15 3 21 -2 9 -8 14 -6 18 4 4
11 1 13 -10 9 -11 -4 -14 -2 -9 5 11 18 0 14 -15 -5z"/>
<path d="M6830 15641 c-8 -6 -18 -7 -24 -4 -5 3 -6 1 -2 -5 4 -7 2 -12 -5 -12
-31 0 7 -15 41 -16 38 -1 38 -1 23 23 -8 12 -16 23 -17 23 0 0 -8 -4 -16 -9z
m23 -15 c4 -10 0 -14 -13 -13 -14 1 -16 4 -8 14 13 16 15 16 21 -1z"/>
<path d="M7367 15616 c-4 -11 -5 -21 -2 -24 7 -7 35 18 35 32 0 6 -4 5 -9 -3
-7 -11 -9 -11 -13 0 -3 9 -7 7 -11 -5z"/>
<path d="M7309 15575 c23 -25 17 -49 -9 -35 -15 8 -17 6 -12 -12 4 -16 2 -19
-8 -13 -9 5 -11 4 -6 -3 4 -7 2 -12 -3 -12 -6 0 -11 6 -11 13 0 9 -3 8 -9 -2
-6 -9 -11 -10 -15 -2 -7 11 -36 -9 -36 -25 0 -5 5 -3 12 4 7 7 17 12 23 12 5
-1 -1 -10 -14 -20 -17 -15 -19 -20 -8 -20 9 0 20 7 25 16 6 11 17 15 30 12 12
-3 21 -3 20 1 -2 13 14 41 22 36 4 -3 16 7 25 21 9 15 12 23 6 20 -9 -6 -15 4
-13 24 0 3 -8 6 -18 6 -19 0 -19 -1 -1 -21z"/>
<path d="M6785 15580 c-4 -6 -11 -8 -16 -5 -5 4 -5 -3 0 -16 4 -13 14 -25 22
-27 11 -3 11 -1 -1 7 -12 9 -13 14 -2 31 7 11 10 20 8 20 -3 0 -8 -5 -11 -10z"/>
<path d="M7280 15576 c0 -2 8 -10 18 -17 15 -13 16 -12 3 4 -13 16 -21 21 -21
13z"/>
<path d="M7250 15465 c-7 -9 -11 -17 -9 -20 3 -2 10 5 17 15 14 24 10 26 -8 5z"/>
<path d="M7120 15429 c0 -5 5 -7 10 -4 6 3 10 8 10 11 0 2 -4 4 -10 4 -5 0
-10 -5 -10 -11z"/>
<path d="M7143 15411 c-13 -11 -23 -22 -23 -25 0 -13 28 -5 43 12 32 35 17 43
-20 13z"/>
<path d="M6699 15398 c0 -13 -3 -17 -6 -10 -6 14 -23 6 -23 -11 0 -7 9 -13 20
-14 16 -1 20 4 20 28 0 34 -10 40 -11 7z"/>
<path d="M7125 15349 c-4 -6 -4 -13 -1 -16 3 -4 6 -1 6 6 0 7 5 9 10 6 6 -4 7
-12 3 -18 -4 -7 0 -6 10 2 9 7 17 17 17 22 0 13 -38 11 -45 -2z"/>
<path d="M7056 15272 c-3 -5 1 -9 9 -9 8 0 12 4 9 9 -3 4 -7 8 -9 8 -2 0 -6
-4 -9 -8z"/>
<path d="M6577 15255 c-3 -7 2 -22 11 -32 9 -10 14 -14 10 -9 -5 6 -8 19 -8
31 1 19 1 19 13 -3 l13 -23 12 28 c11 25 11 26 -2 10 -12 -15 -14 -16 -20 -2
-7 19 -22 19 -29 0z"/>
<path d="M7046 15234 c-5 -14 -4 -15 9 -4 17 14 19 20 6 20 -5 0 -12 -7 -15
-16z"/>
<path d="M6969 15198 c-6 -14 -6 -59 0 -63 5 -2 8 3 7 12 0 9 5 18 13 21 9 3
11 0 6 -8 -5 -8 -4 -11 3 -6 6 4 9 13 5 22 -4 12 -8 12 -21 2 -13 -11 -15 -10
-9 5 3 9 4 17 2 17 -3 0 -6 -1 -6 -2z"/>
<path d="M7015 15190 c-3 -5 -1 -10 4 -10 6 0 11 5 11 10 0 6 -2 10 -4 10 -3
0 -8 -4 -11 -10z"/>
<path d="M6512 15088 c-10 -30 -10 -31 3 -14 13 17 21 46 12 46 -1 0 -8 -15
-15 -32z"/>
<path d="M6543 15063 c1 -18 5 -33 9 -33 10 0 9 19 -2 45 -7 16 -9 14 -7 -12z"/>
<path d="M6505 15040 c-13 -6 -15 -9 -5 -9 13 -1 13 -3 0 -12 -12 -9 -12 -10
3 -5 24 8 44 -4 26 -15 -10 -6 -7 -8 9 -6 27 2 28 8 2 25 -12 7 -18 17 -15 22
7 11 7 11 -20 0z"/>
<path d="M6809 15038 c0 -2 -3 -14 -5 -28 -4 -23 -4 -23 9 -6 11 15 16 16 22
6 6 -9 4 -11 -6 -5 -8 5 -11 4 -6 0 4 -5 0 -16 -9 -26 -12 -13 -12 -19 -3 -25
8 -4 10 -3 5 4 -4 6 2 17 14 24 25 16 26 34 0 48 -11 6 -20 9 -21 8z"/>
<path d="M9559 15792 l-32 -29 62 2 c34 1 65 6 69 10 4 4 -13 5 -38 1 l-45 -5
45 14 45 15 -45 -5 c-31 -4 -40 -2 -30 4 8 6 12 13 8 16 -3 4 -21 -7 -39 -23z"/>
<path d="M9765 15671 c-3 -5 -1 -12 5 -16 5 -3 10 1 10 9 0 18 -6 21 -15 7z"/>
<path d="M9764 15612 c0 -10 5 -19 12 -19 6 0 9 9 6 19 -2 10 -7 18 -11 18 -4
0 -7 -8 -7 -18z"/>
<path d="M9765 15560 c3 -5 8 -10 11 -10 2 0 4 5 4 10 0 6 -5 10 -11 10 -5 0
-7 -4 -4 -10z"/>
<path d="M9500 15555 c0 -5 5 -17 10 -25 5 -8 10 -10 10 -5 0 6 -5 17 -10 25
-5 8 -10 11 -10 5z"/>
<path d="M9795 15510 c-3 -5 -1 -10 4 -10 6 0 11 5 11 10 0 6 -2 10 -4 10 -3
0 -8 -4 -11 -10z"/>
<path d="M9763 15425 c0 -7 6 -11 14 -8 7 3 13 6 13 8 0 2 -6 5 -13 8 -8 3
-14 -1 -14 -8z"/>
<path d="M9480 15381 c0 -11 5 -23 12 -27 6 -4 8 -3 4 4 -3 5 -2 12 3 14 5 1
3 9 -5 16 -12 11 -14 9 -14 -7z"/>
<path d="M9763 15369 c-1 -11 3 -19 8 -19 6 0 8 4 4 9 -3 5 3 11 12 13 16 3
15 5 -2 9 -16 5 -21 1 -22 -12z"/>
<path d="M9475 15331 c-3 -5 -1 -12 5 -16 5 -3 10 1 10 9 0 18 -6 21 -15 7z"/>
<path d="M9500 15325 c0 -8 4 -15 8 -15 5 0 9 7 9 15 0 8 -4 15 -9 15 -4 0 -8
-7 -8 -15z"/>
<path d="M9481 15293 c0 -5 4 -17 9 -28 8 -18 9 -17 9 8 1 15 -3 27 -9 27 -5
0 -10 -3 -9 -7z"/>
<path d="M9771 15254 c0 -11 3 -14 6 -6 3 7 2 16 -1 19 -3 4 -6 -2 -5 -13z"/>
<path d="M9483 15222 c-10 -17 -8 -18 14 -14 16 3 21 7 13 12 -9 6 -9 9 1 13
11 4 11 6 -1 6 -8 1 -20 -7 -27 -17z"/>
<path d="M9761 15164 c0 -11 3 -14 6 -6 3 7 2 16 -1 19 -3 4 -6 -2 -5 -13z"/>
<path d="M9415 14800 c-3 -5 -1 -10 4 -10 6 0 11 5 11 10 0 6 -2 10 -4 10 -3
0 -8 -4 -11 -10z"/>
<path d="M9681 14774 c0 -11 3 -14 6 -6 3 7 2 16 -1 19 -3 4 -6 -2 -5 -13z"/>
<path d="M9422 14764 c-7 -8 -12 -20 -9 -27 2 -7 9 -2 16 11 15 28 11 36 -7
16z"/>
<path d="M9532 14711 c-10 -6 -5 -11 19 -20 18 -6 35 -9 37 -6 3 3 -1 5 -9 5
-12 0 -11 2 1 10 11 8 7 9 -15 4 -23 -4 -26 -3 -15 5 18 13 1 15 -18 2z"/>
<path d="M9628 14713 c7 -3 16 -2 19 1 4 3 -2 6 -13 5 -11 0 -14 -3 -6 -6z"/>
<path d="M9427 14695 c-4 -8 -3 -16 1 -19 4 -3 9 4 9 15 2 23 -3 25 -10 4z"/>
<path d="M8003 15715 c0 -31 11 -39 34 -26 16 9 15 10 -7 11 -17 0 -21 3 -12
9 10 6 10 10 -1 20 -12 9 -14 7 -14 -14z"/>
<path d="M7735 15721 c-3 -5 0 -13 6 -17 7 -4 9 -3 5 4 -3 5 0 13 6 15 9 4 10
6 1 6 -6 1 -14 -3 -18 -8z"/>
<path d="M8085 15711 c-19 -8 -19 -9 5 -16 26 -9 60 -14 60 -9 0 6 -32 34 -38
33 -4 0 -16 -4 -27 -8z"/>
<path d="M7716 15692 c-3 -5 1 -9 9 -9 8 0 12 4 9 9 -3 4 -7 8 -9 8 -2 0 -6
-4 -9 -8z"/>
<path d="M7715 15640 c-10 -11 -16 -23 -12 -26 6 -7 56 27 57 39 0 14 -27 7
-45 -13z"/>
<path d="M7745 15610 c-3 -5 -1 -10 4 -10 6 0 11 5 11 10 0 6 -2 10 -4 10 -3
0 -8 -4 -11 -10z"/>
<path d="M8085 15590 c-4 -6 1 -7 12 -3 16 6 16 5 4 -11 -16 -19 -23 -58 -9
-50 5 3 7 13 6 21 -2 9 3 18 11 21 9 3 11 0 6 -8 -5 -8 -4 -11 3 -7 14 9 3 47
-14 47 -7 0 -16 -4 -19 -10z"/>
<path d="M7630 15561 c-8 -6 -19 -7 -25 -4 -5 4 -7 3 -3 -2 4 -4 3 -13 -2 -20
-7 -9 1 -12 34 -11 43 0 44 0 29 23 -9 13 -16 23 -17 23 0 0 -8 -4 -16 -9z
m23 -15 c4 -10 0 -14 -13 -13 -14 1 -16 4 -8 14 13 16 15 16 21 -1z"/>
<path d="M7572 15515 c4 -4 0 -13 -9 -20 -18 -13 -29 -55 -14 -55 5 0 8 8 7
18 0 9 3 17 9 17 5 0 10 -4 10 -10 0 -21 18 -19 20 2 1 12 -3 19 -8 16 -6 -4
-8 0 -4 10 3 9 1 19 -6 23 -7 4 -9 4 -5 -1z"/>
<path d="M7803 15334 c-13 -11 -23 -27 -23 -33 0 -7 12 2 26 19 31 36 29 45
-3 14z"/>
<path d="M7463 15335 c-15 -17 -16 -25 -3 -25 5 0 14 9 20 20 12 23 1 26 -17
5z"/>
<path d="M7483 15305 c-8 -23 0 -24 20 -3 14 15 15 18 2 18 -9 0 -18 -7 -22
-15z"/>
<path d="M7705 15270 c-3 -5 -3 -15 1 -22 5 -8 2 -9 -10 -5 -13 5 -16 2 -14
-11 1 -9 -1 -23 -6 -31 -6 -9 -5 -12 5 -9 8 3 13 13 13 22 -2 13 1 14 12 5 14
-11 15 -10 18 12 0 7 10 15 21 20 11 4 14 8 7 8 -7 1 -10 7 -7 14 4 6 -1 3 -9
-7 -14 -18 -21 -15 -17 7 2 10 -7 9 -14 -3z"/>
<path d="M7440 15114 c0 -7 52 -25 57 -20 2 2 -10 8 -26 14 -17 6 -31 9 -31 6z"/>
<path d="M11405 15740 l-30 -8 33 -1 c17 0 32 4 32 9 0 6 -1 9 -2 9 -2 -1 -16
-5 -33 -9z"/>
<path d="M11325 15710 c3 -5 11 -10 16 -10 6 0 7 5 4 10 -3 6 -11 10 -16 10
-6 0 -7 -4 -4 -10z"/>
<path d="M11418 15713 c7 -3 16 -2 19 1 4 3 -2 6 -13 5 -11 0 -14 -3 -6 -6z"/>
<path d="M11270 15700 c-9 -6 -10 -10 -3 -10 6 0 15 5 18 10 8 12 4 12 -15 0z"/>
<path d="M11375 15690 c-3 -5 -1 -10 4 -10 6 0 11 5 11 10 0 6 -2 10 -4 10 -3
0 -8 -4 -11 -10z"/>
<path d="M11299 15569 c8 -15 19 -25 23 -23 5 3 11 -2 14 -10 6 -16 24 -12 24
5 0 6 -4 7 -10 4 -5 -3 -10 -1 -10 4 0 6 -7 11 -16 11 -10 0 -13 6 -10 18 4
13 1 18 -12 18 -17 0 -18 -2 -3 -27z"/>
<path d="M11340 15585 c0 -8 2 -15 4 -15 2 0 6 7 10 15 3 8 1 15 -4 15 -6 0
-10 -7 -10 -15z"/>
<path d="M11610 15580 c-8 -15 -8 -25 0 -38 9 -14 10 -13 4 8 -6 22 -5 23 9
12 9 -8 14 -19 11 -26 -3 -7 2 -13 10 -13 8 0 12 6 8 15 -3 10 -1 13 6 8 8 -5
10 -1 5 10 -4 11 -8 13 -11 6 -3 -9 -7 -8 -16 1 -8 6 -11 18 -9 24 8 21 -5 15
-17 -7z"/>
<path d="M11334 15499 c-5 -8 -3 -9 6 -4 9 6 12 4 8 -7 -4 -8 -3 -21 2 -27 5
-9 8 -4 8 13 0 30 -13 42 -24 25z"/>
<path d="M11765 15310 c-3 -11 -3 -24 0 -30 4 -7 -4 -9 -24 -5 -29 5 -31 4
-19 -14 9 -15 14 -17 20 -8 4 7 8 8 8 3 0 -24 25 18 26 44 2 35 -2 38 -11 10z"/>
<path d="M11466 15259 c-15 -21 -12 -49 5 -49 5 0 12 7 15 15 6 14 8 13 20 -2
13 -16 13 -15 2 10 l-12 28 -13 -23 c-12 -22 -12 -22 -13 -2 0 11 5 25 12 32
7 7 9 12 6 12 -4 0 -14 -10 -22 -21z"/>
<path d="M11610 15270 c12 -8 12 -10 1 -10 -8 0 -12 -2 -9 -5 3 -3 13 -2 22 1
14 5 15 9 4 15 -7 5 -17 9 -23 9 -5 0 -3 -5 5 -10z"/>
<path d="M11661 15270 c16 -11 13 -14 -25 -27 -17 -5 -31 -16 -34 -24 -2 -9
-1 -10 5 -3 11 16 58 30 49 15 -4 -6 -2 -11 3 -11 6 0 11 5 11 12 0 6 6 19 14
27 13 14 12 16 -11 18 -18 1 -22 -2 -12 -7z"/>
<path d="M11700 15251 c0 -6 4 -13 10 -16 6 -3 7 1 4 9 -7 18 -14 21 -14 7z"/>
<path d="M11485 15200 c-3 -5 -1 -10 4 -10 6 0 11 5 11 10 0 6 -2 10 -4 10 -3
0 -8 -4 -11 -10z"/>
<path d="M10280 15571 c0 -5 5 -13 10 -16 6 -3 10 -2 10 4 0 5 -4 13 -10 16
-5 3 -10 2 -10 -4z"/>
<path d="M10058 15542 c-16 -17 -16 -18 1 -18 9 0 18 8 18 18 2 21 2 21 -19 0z"/>
<path d="M10240 15551 c0 -5 5 -13 10 -16 6 -3 10 -2 10 4 0 5 -4 13 -10 16
-5 3 -10 2 -10 -4z"/>
<path d="M10023 15062 c2 -18 6 -35 10 -38 3 -3 4 8 2 26 -3 18 -7 35 -10 38
-3 3 -4 -9 -2 -26z"/>
<path d="M10050 15066 c0 -9 5 -16 10 -16 6 0 10 4 10 9 0 6 -4 13 -10 16 -5
3 -10 -1 -10 -9z"/>
<path d="M10057 15026 c-4 -11 -5 -21 -2 -24 3 -3 5 1 5 9 0 11 2 12 9 1 7
-11 9 -10 14 3 4 9 3 14 -2 10 -5 -3 -11 0 -13 7 -3 7 -7 5 -11 -6z"/>
<path d="M10135 15020 c3 -5 8 -10 11 -10 2 0 4 5 4 10 0 6 -5 10 -11 10 -5 0
-7 -4 -4 -10z"/>
<path d="M11707 15439 c7 -7 15 -10 18 -7 3 3 -2 9 -12 12 -14 6 -15 5 -6 -5z"/>
<path d="M5926 13009 c-82 -19 -146 -98 -146 -180 0 -75 72 -584 85 -605 20
-32 63 -39 94 -16 21 15 42 69 114 288 101 309 108 351 65 424 -42 73 -128
108 -212 89z"/>
<path d="M5165 12773 c-68 -36 -104 -96 -105 -172 0 -92 20 -114 283 -316 255
-195 276 -206 317 -165 11 11 20 32 20 47 0 33 -252 527 -288 566 -15 16 -39
35 -54 43 -36 19 -135 17 -173 -3z"/>
<path d="M4834 12130 c-147 -34 -201 -203 -101 -317 38 -44 82 -63 140 -63 24
0 161 16 303 35 142 19 265 35 272 35 24 0 52 40 52 75 0 25 -6 39 -23 50 -27
17 -525 179 -577 187 -19 3 -49 3 -66 -2z"/>
<path d="M3433 9483 c9 -2 23 -2 30 0 6 3 -1 5 -18 5 -16 0 -22 -2 -12 -5z"/>
<path d="M4962 7878 c-7 -7 -12 -18 -12 -25 0 -18 29 -16 37 3 8 21 -10 37
-25 22z"/>
<path d="M3664 7869 c-3 -6 -2 -15 2 -19 12 -12 38 5 30 19 -9 14 -23 14 -32
0z"/>
<path d="M2640 7859 c0 -5 5 -7 10 -4 6 3 10 8 10 11 0 2 -4 4 -10 4 -5 0 -10
-5 -10 -11z"/>
<path d="M2890 7860 c0 -5 4 -10 9 -10 6 0 13 5 16 10 3 6 -1 10 -9 10 -9 0
-16 -4 -16 -10z"/>
<path d="M4689 7619 c-13 -25 0 -43 27 -37 26 5 29 35 5 47 -17 9 -22 8 -32
-10z"/>
<path d="M2636 7623 c-12 -12 -6 -33 9 -33 8 0 15 6 15 14 0 17 -14 28 -24 19z"/>
<path d="M3404 7615 c-10 -24 5 -36 27 -24 16 8 18 13 8 25 -15 18 -28 18 -35
-1z"/>
<path d="M4432 7618 c-8 -8 -9 -15 -1 -25 15 -18 36 -16 43 3 12 31 -18 46
-42 22z"/>
<path d="M2113 7608 c2 -7 10 -13 17 -13 7 0 15 6 18 13 2 7 -5 12 -18 12 -13
0 -20 -5 -17 -12z"/>
<path d="M2376 7611 c-3 -5 1 -14 8 -20 16 -13 32 2 21 19 -8 12 -22 13 -29 1z"/>
<path d="M4175 7370 c-14 -16 -15 -22 -5 -35 28 -34 77 -4 53 33 -15 24 -28
24 -48 2z"/>
<path d="M4436 7377 c-26 -19 -17 -51 15 -55 35 -4 47 25 21 50 -15 16 -20 16
-36 5z"/>
<path d="M2375 7370 c-8 -13 3 -50 15 -50 5 0 14 8 19 18 15 27 -18 58 -34 32z"/>
<path d="M2635 7366 c-21 -15 -12 -36 16 -36 12 0 19 7 19 19 0 27 -13 33 -35
17z"/>
<path d="M3147 7373 c-10 -10 -8 -41 3 -48 5 -3 18 0 29 7 15 9 17 16 10 30
-10 18 -30 24 -42 11z"/>
<path d="M2105 7360 c-4 -7 -3 -16 3 -22 14 -14 45 -2 40 15 -6 16 -34 21 -43
7z"/>
<path d="M4176 7117 c-36 -26 4 -84 42 -61 23 15 26 38 7 58 -20 19 -26 20
-49 3z"/>
<path d="M4426 7114 c-29 -29 -12 -64 31 -64 32 0 46 31 27 58 -18 26 -37 28
-58 6z"/>
<path d="M2113 7113 c-7 -2 -13 -16 -13 -29 0 -19 5 -24 24 -24 31 0 40 14 26
40 -11 20 -16 22 -37 13z"/>
<path d="M2371 7103 l-24 -16 23 -19 c27 -22 53 -8 48 25 -4 27 -19 30 -47 10z"/>
<path d="M2877 7113 c-4 -3 -7 -16 -7 -29 0 -31 29 -39 54 -14 21 21 21 21 2
36 -21 15 -39 18 -49 7z"/>
<path d="M3141 7106 c-26 -31 14 -71 45 -45 8 7 14 22 12 33 -4 26 -40 33 -57
12z"/>
<path d="M3907 6862 c-20 -22 -22 -43 -5 -60 39 -39 100 17 63 58 -22 25 -37
25 -58 2z"/>
<path d="M4167 6862 c-22 -24 -21 -38 3 -62 17 -17 24 -18 45 -8 31 14 35 62
6 78 -27 14 -35 13 -54 -8z"/>
<path d="M2108 6859 c-37 -21 -4 -78 33 -59 21 12 25 40 7 58 -14 14 -18 14
-40 1z"/>
<path d="M2373 6863 c-18 -7 -16 -60 2 -67 35 -13 63 21 45 55 -11 19 -23 22
-47 12z"/>
<path d="M2870 6851 c-13 -25 -4 -48 21 -56 38 -12 65 35 37 63 -18 18 -46 14
-58 -7z"/>
<path d="M3900 6610 c-11 -11 -20 -27 -20 -35 0 -16 34 -55 48 -55 20 0 52 34
52 55 0 21 -32 55 -52 55 -5 0 -17 -9 -28 -20z"/>
<path d="M4173 6620 c-31 -13 -31 -63 -1 -84 28 -20 30 -20 56 4 27 26 28 44
2 70 -22 22 -25 23 -57 10z"/>
<path d="M2103 6608 c-22 -29 -23 -38 -3 -58 11 -11 24 -20 29 -20 14 0 41 30
41 45 0 17 -27 45 -44 45 -8 0 -18 -6 -23 -12z"/>
<path d="M2616 6604 c-21 -20 -20 -37 2 -57 33 -30 72 -15 72 28 0 42 -44 59
-74 29z"/>
<path d="M2872 6608 c-7 -7 -12 -21 -12 -33 0 -44 60 -63 80 -26 14 27 13 37
-6 55 -18 19 -45 21 -62 4z"/>
<path d="M3642 6608 c-7 -7 -12 -21 -12 -33 0 -29 19 -45 52 -45 36 0 56 36
39 69 -13 23 -59 29 -79 9z"/>
<path d="M3902 6365 c-30 -22 -30 -69 2 -90 48 -32 104 22 76 74 -6 12 -15 21
-20 21 -4 0 -14 2 -22 5 -7 3 -23 -2 -36 -10z"/>
<path d="M2096 6354 c-9 -8 -16 -24 -16 -34 0 -21 25 -50 44 -50 17 0 42 22
49 43 7 19 -24 57 -47 57 -8 0 -22 -7 -30 -16z"/>
<path d="M2618 6359 c-21 -12 -24 -59 -6 -77 20 -20 56 -14 74 13 15 23 15 27
0 50 -17 26 -40 31 -68 14z"/>
<path d="M3634 6349 c-17 -19 -17 -23 -3 -47 16 -30 61 -41 85 -21 17 14 19
60 2 77 -19 19 -63 14 -84 -9z"/>
<path d="M3642 6104 c-40 -28 -24 -94 25 -109 17 -4 29 1 48 19 32 32 32 59
-1 85 -32 25 -43 26 -72 5z"/>
<path d="M3896 6099 c-34 -27 -32 -64 7 -93 26 -19 30 -19 55 -5 37 20 43 80
10 103 -30 21 -40 20 -72 -5z"/>
<path d="M2086 6088 c-21 -30 -20 -43 6 -68 27 -25 50 -26 71 -2 22 24 21 55
-1 75 -26 23 -58 21 -76 -5z"/>
<path d="M2607 6092 c-22 -24 -21 -55 1 -75 52 -47 115 11 82 74 -14 25 -61
25 -83 1z"/>
<path d="M3652 5860 c-51 -21 -51 -100 0 -119 53 -20 99 25 84 82 -4 18 -46
50 -59 46 -1 0 -12 -4 -25 -9z"/>
<path d="M3890 5850 c-60 -60 17 -152 83 -100 36 29 36 71 1 99 -33 26 -58 27
-84 1z"/>
<path d="M2092 5844 c-44 -31 -14 -110 39 -102 12 2 31 15 42 29 16 23 17 30
7 50 -23 42 -50 50 -88 23z"/>
<path d="M2607 5842 c-35 -39 -9 -102 41 -102 28 0 62 34 62 60 0 27 -35 60
-63 60 -13 0 -31 -8 -40 -18z"/>
<path d="M3377 5842 c-40 -44 -6 -106 54 -100 46 4 69 48 48 87 -19 34 -77 41
-102 13z"/>
<path d="M3394 5608 c-22 -10 -44 -47 -44 -72 0 -21 47 -58 75 -58 63 0 89 81
39 121 -30 23 -39 24 -70 9z"/>
<path d="M3636 5599 c-26 -20 -36 -69 -18 -95 13 -21 52 -34 77 -28 55 14 71
78 30 119 -30 30 -54 31 -89 4z"/>
<path d="M3885 5595 c-14 -13 -25 -36 -25 -50 0 -28 40 -75 64 -75 54 0 99 57
77 98 -30 57 -76 68 -116 27z"/>
<path d="M2080 5588 c-26 -29 -25 -59 3 -86 63 -59 148 27 87 88 -26 26 -64
25 -90 -2z"/>
<path d="M2600 5590 c-41 -41 -10 -110 48 -110 36 0 62 28 62 67 0 57 -69 84
-110 43z"/>
<path d="M3384 5341 c-55 -34 -49 -103 12 -127 37 -15 71 -2 93 37 19 33 1 81
-35 98 -32 14 -34 14 -70 -8z"/>
<path d="M3650 5353 c-45 -18 -65 -86 -34 -117 57 -58 134 -32 134 45 0 56
-50 91 -100 72z"/>
<path d="M3892 5344 c-49 -34 -48 -97 2 -130 75 -48 155 58 91 121 -28 29 -61
32 -93 9z"/>
<path d="M2080 5330 c-43 -43 -11 -120 49 -120 32 0 71 39 71 70 0 10 -9 29
-21 44 -25 32 -70 35 -99 6z"/>
<path d="M2342 5330 c-46 -43 -15 -120 48 -120 38 0 70 32 70 70 0 62 -73 92
-118 50z"/>
<path d="M2595 5330 c-26 -29 -24 -79 4 -102 70 -56 164 39 101 102 -26 26
-81 26 -105 0z"/>
<path d="M3370 5082 c-39 -39 -39 -74 -1 -113 33 -33 50 -35 90 -14 68 35 51
136 -26 151 -27 5 -37 1 -63 -24z"/>
<path d="M3643 5100 c-48 -19 -58 -95 -18 -135 26 -27 51 -31 88 -14 25 11 47
47 47 74 0 27 -22 63 -47 74 -28 13 -40 13 -70 1z"/>
<path d="M2075 5075 c-14 -13 -25 -36 -25 -50 0 -36 42 -75 80 -75 41 0 70 31
70 75 0 70 -76 100 -125 50z"/>
<path d="M2340 5080 c-31 -31 -30 -85 2 -112 29 -26 74 -23 103 7 30 30 32 64
4 99 -26 33 -79 36 -109 6z"/>
<path d="M2592 5077 c-44 -47 -11 -127 52 -127 64 0 100 54 72 109 -25 48 -88
57 -124 18z"/>
<path d="M3384 4846 c-35 -15 -44 -33 -44 -79 1 -36 15 -58 47 -75 35 -19 63
-14 94 17 36 36 38 79 7 115 -29 32 -64 39 -104 22z"/>
<path d="M3644 4850 c-58 -23 -70 -95 -25 -141 46 -46 108 -34 140 28 18 35
13 53 -23 89 -35 35 -54 40 -92 24z"/>
<path d="M2076 4829 c-53 -41 -20 -139 48 -139 66 0 102 59 72 118 -25 47 -75
56 -120 21z"/>
<path d="M2335 4825 c-31 -30 -32 -73 -4 -109 18 -23 28 -27 62 -24 74 6 106
89 53 135 -36 30 -80 30 -111 -2z"/>
<path d="M2592 4830 c-62 -58 -14 -153 73 -141 30 3 65 48 65 82 0 66 -89 104
-138 59z"/>
<path d="M3380 4592 c-66 -32 -66 -123 0 -157 62 -32 132 11 132 79 0 43 -15
64 -59 83 -39 16 -31 16 -73 -5z"/>
<path d="M3645 4601 c-51 -21 -73 -76 -50 -124 29 -62 98 -75 146 -28 50 50
33 127 -33 150 -35 13 -36 13 -63 2z"/>
<path d="M2083 4588 c-48 -23 -54 -112 -10 -143 87 -61 187 56 112 130 -26 27
-64 31 -102 13z"/>
<path d="M2329 4571 c-31 -31 -36 -59 -17 -94 17 -34 39 -46 81 -47 63 0 102
60 77 119 -23 56 -95 67 -141 22z"/>
<path d="M2585 4575 c-43 -42 -31 -111 25 -140 58 -30 122 13 122 81 0 76 -94
113 -147 59z"/>
<path d="M2074 4325 c-34 -23 -49 -69 -34 -105 17 -41 46 -60 91 -60 46 0 89
45 89 92 0 66 -91 112 -146 73z"/>
<path d="M2326 4314 c-53 -53 -20 -147 54 -155 60 -6 100 31 100 91 0 84 -95
123 -154 64z"/>
<path d="M2583 4316 c-72 -62 2 -190 90 -157 101 39 83 181 -22 181 -28 0 -48
-7 -68 -24z"/>
<path d="M3135 4089 c-41 -12 -65 -46 -65 -94 0 -52 21 -82 68 -95 49 -15 86
-1 112 42 24 40 25 59 4 99 -12 24 -70 63 -86 58 -2 0 -16 -5 -33 -10z"/>
<path d="M3373 4080 c-59 -36 -71 -97 -27 -149 45 -53 134 -48 165 10 29 55 2
129 -53 148 -42 15 -48 14 -85 -9z"/>
<path d="M2059 4061 c-38 -39 -39 -87 -3 -130 22 -26 33 -31 70 -31 60 0 94
34 94 94 -1 44 -13 66 -47 84 -39 21 -82 14 -114 -17z"/>
<path d="M2327 4066 c-35 -32 -42 -65 -23 -110 17 -42 64 -67 109 -59 39 8 77
57 77 100 0 80 -104 124 -163 69z"/>
<path d="M2579 4061 c-52 -53 -32 -137 39 -162 43 -15 97 10 118 54 47 99 -79
185 -157 108z"/>
<path d="M2847 4079 c-22 -13 -47 -61 -47 -91 0 -52 68 -104 120 -93 49 11 80
48 80 97 -1 46 -12 68 -47 86 -27 15 -82 15 -106 1z"/>
<path d="M2864 3835 c-88 -37 -87 -157 1 -191 38 -14 46 -14 78 -1 70 30 86
117 29 169 -35 33 -69 40 -108 23z"/>
<path d="M3123 3836 c-34 -15 -63 -60 -63 -98 0 -34 36 -87 67 -99 83 -31 172
56 139 136 -25 58 -88 85 -143 61z"/>
<path d="M3373 3834 c-20 -10 -37 -29 -47 -54 -46 -114 94 -202 177 -110 47
52 31 132 -34 166 -35 18 -56 17 -96 -2z"/>
<path d="M3629 3835 c-37 -20 -59 -58 -59 -101 0 -48 53 -104 99 -104 111 0
157 118 75 189 -38 34 -73 39 -115 16z"/>
<path d="M2059 3812 c-69 -62 -24 -172 71 -172 54 0 89 32 97 87 5 39 2 46
-30 78 -46 46 -92 48 -138 7z"/>
<path d="M2321 3811 c-43 -40 -44 -100 -2 -142 78 -78 209 6 167 106 -30 70
-110 87 -165 36z"/>
<path d="M2571 3805 c-35 -40 -39 -71 -15 -116 48 -94 194 -55 194 51 0 58
-44 100 -103 100 -39 0 -49 -5 -76 -35z"/>
<path d="M3123 3576 c-90 -40 -88 -160 2 -203 94 -45 192 66 139 156 -30 50
-88 70 -141 47z"/>
<path d="M3374 3574 c-58 -28 -83 -112 -48 -162 20 -29 66 -52 105 -52 36 0
94 51 104 92 9 37 -19 94 -57 118 -39 24 -62 25 -104 4z"/>
<path d="M3619 3567 c-70 -47 -78 -110 -20 -168 43 -43 80 -50 131 -24 81 42
81 158 -1 201 -39 20 -71 18 -110 -9z"/>
<path d="M2055 3547 c-25 -25 -35 -44 -35 -67 0 -65 43 -109 106 -110 78 0
130 73 101 142 -19 45 -39 60 -92 65 -41 5 -47 3 -80 -30z"/>
<path d="M2321 3554 c-62 -52 -46 -148 29 -178 39 -16 54 -14 98 7 28 13 52
56 52 91 0 91 -108 140 -179 80z"/>
<path d="M2584 3562 c-71 -57 -54 -164 30 -192 58 -19 125 21 140 82 8 35 -14
90 -45 112 -31 21 -98 20 -125 -2z"/>
<path d="M2843 3568 c-31 -15 -56 -73 -49 -112 7 -35 48 -80 84 -91 32 -9 88
12 112 42 13 17 20 41 20 70 0 61 -42 103 -104 102 -22 0 -51 -5 -63 -11z"/>
<path d="M2064 3310 c-19 -13 -36 -35 -44 -60 -12 -35 -11 -45 3 -75 36 -76
123 -91 183 -31 95 95 -28 239 -142 166z"/>
<path d="M2314 3296 c-27 -27 -34 -42 -34 -71 0 -51 33 -101 74 -115 43 -14
75 -6 114 30 55 50 55 110 -1 161 -25 23 -41 29 -75 29 -37 0 -50 -6 -78 -34z"/>
<path d="M12603 12625 c-69 -30 -85 -138 -32 -218 36 -54 74 -87 100 -87 25 0
24 5 -8 67 -22 42 -26 56 -17 70 17 27 65 27 104 1 49 -33 74 -76 98 -164 23
-84 26 -89 41 -79 27 16 1 186 -39 266 -30 58 -89 119 -135 140 -48 22 -69 23
-112 4z"/>
<path d="M12454 12330 c-35 -14 -88 -75 -120 -137 -42 -84 -41 -156 5 -246 39
-78 37 -83 -43 -124 -78 -39 -104 -60 -132 -109 -34 -59 -47 -115 -33 -151 22
-58 66 -57 187 1 80 39 95 44 124 35 121 -34 217 22 297 175 54 102 33 145
-30 59 -49 -69 -109 -132 -140 -149 -29 -15 -99 -19 -98 -6 0 4 21 21 47 37
26 17 62 53 80 80 32 47 34 54 30 120 -4 89 -32 147 -109 230 -63 67 -71 88
-39 105 39 21 124 -41 185 -133 21 -32 45 -35 45 -6 0 36 -52 129 -96 169 -23
21 -59 43 -80 49 -45 13 -52 13 -80 1z"/>
<path d="M11330 12066 c-42 -41 -141 -95 -222 -121 -142 -45 -345 -51 -550
-15 -99 17 -105 7 -10 -19 117 -31 287 -47 389 -35 l83 10 31 -31 31 -30 -6
35 c-6 34 -5 36 38 51 38 14 49 14 76 2 44 -18 56 -16 37 5 -22 24 -22 27 8
46 20 13 33 15 60 7 37 -10 45 -2 20 19 -13 11 -10 18 20 51 19 22 35 41 35
44 0 12 -17 3 -40 -19z"/>
<path d="M7832 12012 c5 -19 0 -26 -28 -39 -45 -22 -43 -32 5 -26 22 3 52 3
66 -1 l26 -7 -21 -34 c-23 -38 -14 -45 26 -19 20 14 30 15 50 6 24 -11 24 -13
8 -37 -19 -29 -14 -31 26 -10 24 13 33 13 62 1 99 -41 258 -39 357 5 57 25 49
33 -14 13 -29 -9 -88 -15 -140 -16 -143 0 -272 49 -380 144 -41 36 -48 39 -43
20z"/>
<path d="M7971 11421 c-28 -34 -41 -58 -39 -73 3 -25 32 -36 52 -19 13 11 41
129 33 137 -2 3 -23 -18 -46 -45z"/>
<path d="M11037 11463 c-2 -4 3 -37 12 -73 13 -52 20 -66 37 -68 26 -4 48 21
39 45 -8 25 -82 106 -88 96z"/>
<path d="M8140 11405 c-45 -58 -47 -90 -5 -90 28 0 31 4 41 50 23 99 16 107
-36 40z"/>
<path d="M10867 11418 c14 -75 28 -103 52 -106 21 -3 40 11 41 29 0 11 -81
109 -91 109 -4 0 -6 -15 -2 -32z"/>
<path d="M8312 11391 c-45 -53 -49 -76 -20 -94 12 -8 21 -7 32 2 16 13 41 110
35 130 -3 7 -24 -10 -47 -38z"/>
<path d="M10696 11403 c14 -76 28 -108 51 -111 33 -5 46 28 25 60 -24 36 -70
88 -77 88 -3 0 -3 -17 1 -37z"/>
<path d="M8820 11346 c0 -46 62 -162 92 -172 28 -8 58 14 58 43 0 18 -17 41
-62 84 -63 58 -88 71 -88 45z"/>
<path d="M9781 10784 c-182 -76 -330 -119 -571 -164 -191 -35 -190 -35 -190
-54 0 -22 55 -29 193 -23 193 7 383 67 545 170 78 51 87 60 69 75 -8 7 -22 6
-46 -4z"/>
<path d="M8690 6377 c-49 -16 -123 -93 -138 -143 -31 -104 0 -200 78 -241 167
-88 363 115 281 292 -40 87 -125 122 -221 92z"/>
<path d="M15471 6385 c-35 -40 -38 -62 -16 -110 31 -64 108 -74 161 -21 67 67
24 165 -72 166 -36 0 -47 -5 -73 -35z"/>
<path d="M15523 6162 c-13 -2 -36 -17 -53 -33 -44 -45 -42 -99 5 -146 33 -33
39 -35 82 -30 63 7 93 40 93 102 0 70 -58 118 -127 107z"/>
<path d="M15774 6163 c-12 -2 -34 -18 -50 -34 -23 -24 -29 -39 -29 -75 0 -39
5 -50 33 -75 71 -63 182 -16 182 77 0 70 -64 120 -136 107z"/>
<path d="M15734 5892 c-30 -24 -44 -55 -44 -98 0 -29 8 -44 39 -75 44 -45 76
-50 126 -19 103 64 66 210 -54 210 -28 0 -54 -7 -67 -18z"/>
<path d="M17990 4911 c-151 -49 -396 -128 -545 -176 -148 -48 -337 -109 -420
-135 -82 -27 -535 -172 -1005 -323 -941 -303 -2699 -868 -3130 -1007 -151 -49
-597 -192 -990 -318 -393 -127 -1100 -354 -1570 -505 -470 -152 -1039 -335
-1264 -407 -226 -73 -420 -139 -433 -148 -84 -54 -69 -200 23 -238 28 -12 765
-14 4845 -14 4473 0 4813 1 4846 17 20 9 44 30 54 47 18 30 19 83 19 1614 0
1772 6 1626 -73 1663 -23 10 -51 18 -62 18 -11 0 -144 -40 -295 -88z m160
-1621 l0 -1370 -4267 1 c-2348 0 -4263 2 -4258 4 9 4 1009 326 1380 445 83 26
269 86 415 133 146 47 330 107 410 132 280 90 422 136 1270 408 470 152 1116
359 1435 462 319 103 699 225 845 272 146 47 333 107 415 133 83 27 215 69
295 95 80 26 235 76 345 111 110 35 533 171 940 303 407 131 748 239 758 240
16 1 17 -71 17 -1369z"/>
</g>

</svg>
